<?xml version="1.0" standalone="no"?>
<!DOCTYPE svg PUBLIC "-//W3C//DTD SVG 20010904//EN"
 "http://www.w3.org/TR/2001/REC-SVG-20010904/DTD/svg10.dtd">
<svg version="1.0" xmlns="http://www.w3.org/2000/svg"
 width="1920.000000pt" height="1920.000000pt" viewBox="0 0 1920.000000 1920.000000"
 preserveAspectRatio="xMidYMid meet">
<metadata>
Created by potrace 1.14, written by Peter Selinger 2001-2017
</metadata>
<g transform="translate(0.000000,1920.000000) scale(0.100000,-0.100000)"
fill="#000000" stroke="none">
<path d="M8915 12465 c-43 -14 -236 -76 -545 -174 -107 -35 -233 -75 -280 -91
-47 -15 -166 -53 -265 -85 -99 -31 -187 -59 -195 -62 -8 -3 -21 -7 -27 -9 -7
-1 -32 -9 -55 -18 -39 -14 -289 -94 -313 -100 -5 -2 -17 -6 -25 -9 -19 -7
-183 -61 -190 -62 -7 -1 -39 -11 -194 -62 -77 -25 -147 -46 -155 -48 -9 -2
-56 -18 -106 -35 -80 -28 -101 -34 -140 -44 -13 -3 -235 -76 -255 -83 -8 -3
-20 -7 -26 -8 -6 -2 -76 -24 -155 -50 -79 -26 -148 -48 -154 -50 -5 -1 -17 -5
-25 -8 -8 -3 -103 -34 -210 -67 -107 -34 -276 -88 -375 -120 -176 -57 -225
-73 -235 -75 -3 -1 -12 -4 -20 -8 -8 -3 -46 -15 -85 -27 -38 -12 -77 -25 -85
-28 -8 -3 -17 -6 -20 -7 -3 0 -39 -12 -80 -25 -41 -13 -77 -25 -80 -25 -3 0
-66 -21 -140 -45 -74 -24 -137 -45 -140 -45 -36 -9 -67 -19 -75 -24 -5 -3 -14
-6 -20 -7 -5 -1 -44 -13 -85 -27 -41 -13 -122 -39 -180 -57 -58 -17 -114 -36
-125 -40 -17 -8 -171 -57 -200 -64 -5 -2 -17 -6 -25 -9 -20 -7 -124 -41 -130
-42 -6 -1 -330 -105 -350 -112 -8 -3 -19 -7 -25 -8 -5 -2 -41 -13 -80 -26 -38
-13 -72 -24 -75 -24 -11 -2 -337 -107 -365 -118 -16 -7 -32 -12 -35 -13 -3 0
-25 -7 -50 -14 -25 -7 -47 -14 -50 -14 -3 -1 -9 -4 -15 -7 -9 -5 -28 -11 -80
-25 -5 -1 -29 -9 -53 -18 -23 -8 -43 -15 -45 -15 -1 0 -9 -2 -17 -5 -15 -5
-77 -25 -550 -176 -140 -45 -274 -88 -298 -96 -23 -9 -48 -17 -55 -18 -6 -2
-19 -6 -27 -9 -8 -3 -96 -31 -195 -62 -99 -31 -189 -60 -200 -65 -11 -4 -49
-17 -85 -28 -225 -71 -459 -145 -485 -155 -16 -6 -34 -12 -40 -13 -5 -1 -80
-25 -165 -52 -179 -58 -185 -46 50 -119 80 -24 154 -48 165 -53 11 -5 121 -40
245 -80 124 -39 243 -77 265 -85 57 -19 456 -147 469 -150 6 -1 18 -5 26 -8 8
-3 60 -20 115 -38 55 -17 138 -44 185 -59 47 -16 173 -56 280 -90 107 -34 242
-78 300 -97 58 -19 116 -37 129 -39 14 -3 29 -8 35 -12 6 -4 13 -7 16 -7 3 -1
39 -12 80 -25 41 -13 77 -24 80 -25 3 -1 12 -4 20 -7 27 -11 184 -60 200 -63
8 -2 16 -4 18 -5 1 -2 5 -3 10 -5 4 -1 14 -4 22 -8 18 -7 91 -30 105 -33 6 -1
69 -21 140 -45 72 -23 135 -43 140 -45 6 -1 46 -14 90 -29 44 -15 86 -29 95
-30 8 -2 48 -15 88 -29 39 -14 72 -22 72 -19 0 3 6 0 13 -6 8 -6 22 -12 33
-14 21 -4 428 -134 459 -147 11 -4 49 -17 85 -28 36 -11 121 -38 190 -60 69
-22 226 -73 350 -112 124 -40 263 -85 310 -100 109 -36 353 -114 360 -115 3 0
10 -3 15 -6 6 -3 33 -12 60 -19 28 -7 55 -17 60 -21 6 -4 22 -10 35 -12 14 -2
32 -7 40 -10 8 -3 53 -18 100 -32 47 -15 103 -33 125 -40 22 -8 141 -46 265
-85 124 -40 232 -74 240 -77 18 -7 30 -11 50 -16 8 -2 23 -7 33 -10 9 -4 25
-10 35 -14 9 -3 22 -7 29 -9 19 -3 275 -86 298 -95 16 -6 273 -89 295 -94 3
-1 12 -4 20 -8 8 -3 89 -29 180 -57 91 -29 190 -60 220 -71 81 -27 473 -153
485 -155 6 -1 64 -20 130 -42 66 -21 201 -65 300 -97 99 -31 249 -80 332 -107
84 -27 154 -49 155 -48 2 1 15 -3 29 -9 24 -9 27 -7 32 15 2 13 1 27 -4 30 -5
2 -4 15 1 28 4 12 4 29 0 36 -5 8 -6 18 -3 23 7 12 8 146 0 153 -3 3 -2 16 3
28 4 13 4 29 0 36 -5 8 -6 18 -3 23 7 12 8 146 0 153 -3 3 -2 16 3 28 4 13 4
29 0 36 -5 8 -6 18 -3 23 7 12 8 146 0 153 -3 3 -2 16 3 28 4 13 5 29 0 36 -5
7 -4 23 0 36 5 12 7 24 5 26 -8 8 -11 74 -5 93 4 11 4 30 -1 41 -4 12 -5 25
-2 28 7 7 8 130 1 142 -3 5 -2 18 2 29 4 11 4 29 0 40 -4 11 -4 29 0 40 4 11
4 30 -1 41 -4 12 -5 25 -2 28 7 7 8 130 1 142 -3 5 -2 18 2 29 4 11 4 29 0 40
-4 11 -4 29 0 40 4 11 4 30 -1 41 -4 12 -5 25 -2 28 7 7 8 130 1 142 -3 5 -2
18 2 29 4 11 4 29 0 40 -4 11 -4 29 0 40 4 11 4 30 -1 41 -4 12 -5 25 -2 28 8
7 8 135 0 142 -3 3 -3 12 0 20 8 21 9 224 1 224 -4 0 -3 13 2 29 4 15 4 34 0
42 -5 7 -6 17 -3 23 6 9 8 89 3 111 -1 6 -2 12 -1 15 6 15 5 140 -1 140 -4 0
-3 12 1 28 5 15 5 36 1 47 -4 11 -5 24 -2 29 7 13 8 136 0 136 -4 0 -3 12 1
28 5 15 5 36 1 47 -4 11 -5 24 -2 29 7 13 8 136 0 136 -4 0 -3 12 1 28 5 15 5
37 0 49 -4 12 -4 25 0 28 5 3 5 21 1 40 -4 19 -4 35 0 35 4 0 4 16 0 35 -4 19
-5 35 -1 35 7 0 6 63 -1 76 -3 5 -2 18 2 29 4 11 4 30 -1 42 -5 12 -4 25 1 28
5 3 5 18 0 35 -5 17 -6 30 -2 30 8 0 8 62 0 76 -3 5 -2 18 2 29 4 11 4 30 -1
42 -5 12 -4 25 1 28 5 3 5 18 0 35 -5 17 -6 30 -2 30 8 0 8 62 0 76 -3 5 -2
18 2 29 4 11 4 30 -1 42 -5 12 -4 25 1 28 5 3 5 18 0 35 -5 17 -6 30 -2 30 8
0 8 62 0 76 -3 5 -2 18 2 29 4 11 4 30 -1 42 -5 12 -4 25 1 28 5 3 5 18 0 35
-5 17 -6 30 -2 30 8 0 8 68 -1 76 -3 3 -2 18 3 33 4 16 4 34 0 41 -4 7 -4 26
0 41 5 16 5 31 0 34 -6 3 -5 16 0 29 5 13 6 26 3 29 -3 4 -5 25 -4 49 1 24 3
73 4 111 1 37 -1 67 -5 67 -4 0 -3 13 2 29 4 15 4 34 0 42 -5 7 -6 17 -3 23 6
9 8 89 3 111 -1 6 -2 12 -1 15 6 15 5 140 -1 140 -4 0 -3 12 1 28 5 15 5 36 1
47 -4 11 -5 24 -2 29 7 13 8 136 0 136 -4 0 -3 13 2 29 4 15 4 34 0 41 -4 7
-5 24 -1 39 4 14 5 38 2 53 -6 26 -7 26 -46 13z"/>
<path d="M19135 12460 c-27 -9 -86 -29 -130 -43 -145 -47 -386 -124 -630 -202
-132 -42 -246 -78 -253 -80 -7 -3 -14 -5 -17 -5 -3 -1 -37 -13 -77 -27 -40
-14 -77 -26 -83 -27 -5 -1 -35 -10 -65 -20 -55 -18 -69 -22 -82 -25 -4 -1 -74
-25 -155 -52 -82 -27 -157 -51 -168 -54 -17 -3 -141 -43 -195 -63 -8 -3 -19
-6 -25 -7 -5 -2 -39 -13 -75 -25 -36 -12 -72 -23 -80 -25 -8 -2 -71 -22 -140
-45 -69 -23 -129 -43 -135 -44 -51 -13 -71 -20 -80 -25 -5 -3 -16 -6 -23 -7
-8 -2 -21 -6 -30 -10 -15 -6 -29 -10 -57 -17 -5 -1 -23 -8 -40 -14 -16 -6
-118 -39 -225 -73 -262 -83 -472 -150 -490 -157 -8 -3 -21 -8 -27 -10 -7 -1
-19 -5 -25 -6 -7 -2 -20 -7 -28 -10 -8 -3 -60 -20 -115 -37 -55 -17 -107 -34
-115 -37 -8 -3 -19 -7 -25 -9 -5 -1 -68 -21 -140 -44 -71 -23 -172 -55 -223
-71 -51 -16 -98 -31 -103 -34 -5 -4 -17 -8 -26 -10 -17 -3 -85 -25 -488 -155
-88 -29 -164 -53 -170 -54 -5 -1 -23 -7 -40 -13 -16 -6 -75 -26 -130 -43 -55
-17 -176 -56 -270 -86 -93 -30 -199 -64 -235 -75 -36 -11 -72 -23 -80 -26 -8
-4 -17 -7 -20 -8 -48 -13 -190 -58 -205 -64 -20 -9 -339 -111 -360 -116 -5 -1
-17 -5 -25 -8 -29 -11 -245 -81 -257 -83 -16 -3 -171 -53 -198 -64 -19 -8
-225 -73 -235 -75 -6 -1 -343 -109 -435 -140 -38 -13 -171 -55 -295 -95 -124
-39 -250 -79 -280 -89 -30 -11 -143 -47 -250 -81 -107 -33 -204 -65 -215 -70
-11 -5 -67 -23 -125 -40 -58 -18 -166 -52 -240 -77 -74 -25 -139 -46 -145 -47
-53 -13 -95 -28 -99 -34 -3 -5 16 -14 42 -21 26 -8 92 -28 147 -47 161 -53
519 -168 530 -170 6 -1 44 -13 85 -27 181 -60 397 -127 408 -127 7 0 12 -4 12
-8 0 -5 6 -9 13 -10 23 -1 71 -13 81 -20 6 -3 16 -7 21 -8 14 -3 233 -73 267
-86 15 -5 31 -10 35 -10 4 0 24 -6 43 -14 19 -8 35 -15 35 -14 0 1 7 -1 15 -4
8 -2 103 -32 210 -66 107 -34 242 -78 300 -97 58 -19 116 -37 129 -39 14 -3
29 -8 35 -12 6 -4 13 -7 16 -7 3 -1 39 -12 80 -25 41 -13 77 -24 80 -25 3 -1
12 -4 20 -7 27 -11 184 -60 200 -63 8 -2 16 -4 18 -5 1 -2 5 -3 10 -5 4 -1 14
-4 22 -8 17 -6 92 -31 100 -32 6 -1 7 -1 265 -85 105 -34 197 -63 205 -65 8
-2 48 -15 88 -29 39 -14 72 -22 72 -19 0 3 6 0 13 -6 8 -6 22 -12 33 -14 21
-4 428 -134 459 -147 11 -4 49 -17 85 -28 94 -29 508 -161 555 -177 22 -8 141
-46 265 -86 410 -130 505 -160 520 -166 8 -3 20 -7 25 -8 6 -2 53 -17 105 -35
52 -17 106 -34 119 -36 14 -3 29 -8 35 -12 6 -4 13 -7 16 -7 3 -1 16 -5 30 -9
342 -108 468 -149 480 -153 8 -3 21 -8 28 -10 6 -1 18 -5 25 -6 12 -4 19 -6
62 -23 11 -4 25 -8 32 -10 14 -3 141 -43 163 -51 17 -7 13 -6 70 -22 25 -7 54
-17 65 -22 15 -6 271 -88 295 -94 3 -1 12 -4 20 -8 8 -3 89 -29 180 -57 91
-29 190 -60 220 -71 81 -27 473 -153 485 -155 6 -1 64 -20 130 -42 66 -21 201
-65 300 -97 152 -48 491 -157 533 -170 9 -4 12 576 12 2875 0 1584 -3 2880 -7
2879 -5 -1 -30 -9 -58 -19z"/>
</g>
</svg>
