<svg version="1.1" xmlns="http://www.w3.org/2000/svg">
    <symbol id="dots" fill="currentColor" viewBox="0 0 285 285">
        <circle cx="282" cy="282" r="3"/>
        <circle cx="282" cy="251" r="3"/>
        <circle cx="282" cy="220" r="3"/>
        <circle cx="282" cy="189" r="3"/>
        <circle cx="282" cy="158" r="3"/>
        <circle cx="282" cy="127" r="3"/>
        <circle cx="282" cy="96" r="3"/>
        <circle cx="282" cy="65" r="3"/>
        <circle cx="282" cy="34" r="3"/>
        <circle cx="282" cy="3" r="3"/>
        <circle cx="251" cy="282" r="3"/>
        <circle cx="251" cy="251" r="3"/>
        <circle cx="251" cy="220" r="3"/>
        <circle cx="251" cy="189" r="3"/>
        <circle cx="251" cy="158" r="3"/>
        <circle cx="251" cy="127" r="3"/>
        <circle cx="251" cy="96" r="3"/>
        <circle cx="251" cy="65" r="3"/>
        <circle cx="251" cy="34" r="3"/>
        <circle cx="251" cy="3" r="3"/>
        <circle cx="220" cy="282" r="3"/>
        <circle cx="220" cy="251" r="3"/>
        <circle cx="220" cy="220" r="3"/>
        <circle cx="220" cy="189" r="3"/>
        <circle cx="220" cy="158" r="3"/>
        <circle cx="220" cy="127" r="3"/>
        <circle cx="220" cy="96" r="3"/>
        <circle cx="220" cy="65" r="3"/>
        <circle cx="220" cy="34" r="3"/>
        <circle cx="220" cy="3" r="3"/>
        <circle cx="189" cy="282" r="3"/>
        <circle cx="189" cy="251" r="3"/>
        <circle cx="189" cy="220" r="3"/>
        <circle cx="189" cy="189" r="3"/>
        <circle cx="189" cy="158" r="3"/>
        <circle cx="189" cy="127" r="3"/>
        <circle cx="189" cy="96" r="3"/>
        <circle cx="189" cy="65" r="3"/>
        <circle cx="189" cy="34" r="3"/>
        <circle cx="189" cy="3" r="3"/>
        <circle cx="158" cy="282" r="3"/>
        <circle cx="158" cy="251" r="3"/>
        <circle cx="158" cy="220" r="3"/>
        <circle cx="158" cy="189" r="3"/>
        <circle cx="158" cy="158" r="3"/>
        <circle cx="158" cy="127" r="3"/>
        <circle cx="158" cy="96" r="3"/>
        <circle cx="158" cy="65" r="3"/>
        <circle cx="158" cy="34" r="3"/>
        <circle cx="158" cy="3" r="3"/>
        <circle cx="127" cy="282" r="3"/>
        <circle cx="127" cy="251" r="3"/>
        <circle cx="127" cy="220" r="3"/>
        <circle cx="127" cy="189" r="3"/>
        <circle cx="127" cy="158" r="3"/>
        <circle cx="127" cy="127" r="3" />
        <circle cx="127" cy="96" r="3"/>
        <circle cx="127" cy="65" r="3" />
        <circle cx="127" cy="34" r="3"/>
        <circle cx="127" cy="3" r="3"/>
        <circle cx="96" cy="282" r="3"/>
        <circle cx="96" cy="251" r="3"/>
        <circle cx="96" cy="220" r="3"/>
        <circle cx="96" cy="189" r="3" />
        <circle cx="96" cy="158" r="3"/>
        <circle cx="96" cy="127" r="3"/>
        <circle cx="96" cy="96" r="3"/>
        <circle cx="96" cy="65" r="3"/>
        <circle cx="96" cy="34" r="3" />
        <circle cx="96" cy="3" r="3"/>
        <circle cx="65" cy="282" r="3"/>
        <circle cx="65" cy="251" r="3"/>
        <circle cx="65" cy="220" r="3"/>
        <circle cx="65" cy="189" r="3"/>
        <circle cx="65" cy="158" r="3"/>
        <circle cx="65" cy="127" r="3"/>
        <circle cx="65" cy="96" r="3"/>
        <circle cx="65" cy="65" r="3"/>
        <circle cx="65" cy="34" r="3"/>
        <circle cx="65" cy="3" r="3"/>
        <circle cx="34" cy="282" r="3"/>
        <circle cx="34" cy="251" r="3"/>
        <circle cx="34" cy="220" r="3"/>
        <circle cx="34" cy="189" r="3"/>
        <circle cx="34" cy="158" r="3"/>
        <circle cx="34" cy="127" r="3"/>
        <circle cx="34" cy="96" r="3"/>
        <circle cx="34" cy="65" r="3"/>
        <circle cx="34" cy="34" r="3"/>
        <circle cx="34" cy="3" r="3"/>
        <circle cx="3" cy="282" r="3"/>
        <circle cx="3" cy="251" r="3"/>
        <circle cx="3" cy="220" r="3"/>
        <circle cx="3" cy="189" r="3"/>
        <circle cx="3" cy="158" r="3"/>
        <circle cx="3" cy="127" r="3"/>
        <circle cx="3" cy="96" r="3"/>
        <circle cx="3" cy="65" r="3"/>
        <circle cx="3" cy="34" r="3"/>
        <circle cx="3" cy="3" r="3"/>
    </symbol>
    <symbol id="ball" fill="currentColor" viewBox="0 0 99 99">
        <path stroke="currentColor" stroke-width="0.16" d="M98.08 49.96v-.05c0-1.1 0-2.11-.04-2.85l-.05-.41c-.09-1.1-.18-2.53-.32-3.59a43.48 43.48 0 0 0-.73-4.18l-.14-.65a43.41 43.41 0 0 0-.37-1.6 38.9 38.9 0 0 0-1.19-3.73l-.1-.23-.04-.18c-.32-.92-.78-2.07-1.2-2.9 0-.04-.04-.04-.04-.09a40.02 40.02 0 0 0-2.52-4.83 41.12 41.12 0 0 0-1.7-2.66c-.04-.05-.04-.1-.09-.1-.18-.27-.41-.6-.64-.87-.05-.04-.05-.09-.1-.14a39.37 39.37 0 0 0-1.87-2.43c-.05-.05-.1-.14-.19-.19-.41-.5-.87-1-1.33-1.51-.64-.74-.96-1.06-1.79-1.89-.04-.04-.09-.09-.14-.09l-.04-.05a53.39 53.39 0 0 0-3.44-3.08c-.05-.04-.1-.09-.14-.09-.05-.27-.14-.5-.32-.64-.19-.14-.41-.18-.69-.14a9.28 9.28 0 0 0-.83-.6c-.4-.32-.96-.64-1.46-1 0 0-.05 0-.05-.05a45.31 45.31 0 0 0-2.8-1.75 56.26 56.26 0 0 0-5.05-2.53c-.36-.14-.73-.32-1.14-.46-.5-.18-1.06-.41-1.56-.6-.46-.18-1.42-.5-2.57-.82-.46-.14-.92-.28-1.33-.37h-.05c-.64-.18-1.33-.32-1.97-.5-.37-.1-.74-.14-1.06-.24l-2.7-.46c-.14 0-.28-.04-.42-.04h-.09l-1.2-.14h-.08c-.7-.05-1.47-.14-2.2-.18-1.3-.1-2.9-.1-4.33-.05-.46 0-.96.05-1.51.1h-.42l-1.56.13c-2.06.18-4.63.69-5.36.87-.7.14-1.56.33-2.44.6h-.04l-.96.28a28.46 28.46 0 0 0-2.66.92c-.14-.23-.33-.19-.6-.1-.1.05-.19.1-.28.1-.96.36-2.06.82-3.07 1.28-.69.32-1.42.65-2.07 1.01-.23.14-.5.28-.68.37-.23.14-.6.37-1.1.65-1.2.69-2.3 1.33-3.58 2.3-.46.32-.92.64-1.33.96-.05.05-.14.1-.19.14-.09.04-.18.14-.27.18-.28.19-.55.42-.83.64a42.48 42.48 0 0 0-4.86 4.51 60.37 60.37 0 0 0-4.36 5.33c-.05.05-.05.1-.1.14-.13.18-.27.37-.36.55 0 .05-.05.05-.05.1v.04c-.09.14-.18.28-.27.46-.1 0-.1.05-.14.1a9886.9 9886.9 0 0 0-.41.63c-.05.1-.1.14-.14.23-.6.88-1.1 1.8-1.56 2.76-.32.6-.64 1.2-.96 1.84-.19.32-.32.7-.5 1.06a49.58 49.58 0 0 0-3.72 12c-.05.23-.05.41-.1.64 0 .14-.04.28-.04.41-.28 1.89-.5 4.32-.5 6.07V50a46.96 46.96 0 0 0 .4 5.8c0 .13.05.22.05.36.19 1.29.41 2.71.69 3.82l.14.64.41 1.61c0 .1.05.14.05.23.04.23.13.41.18.64.1.33.23.7.32 1.06.23.64.41 1.29.6 1.84.04.14.09.32.18.46.32.87.78 2.02 1.15 2.85.32.69.73 1.6 1.1 2.34a48.94 48.94 0 0 0 2.57 4.41c1.1 1.66 2.43 3.5 3.3 4.47l.05.04c.09.14.18.23.32.37.37.46.83.96 1.2 1.38.59.69.96 1.01 1.74 1.8.6.59 1.51 1.46 2.7 2.47l.05.05c.27.23.5.46.82.69.1.1.23.18.33.27.09.1.18.14.27.23.05 0 .05.05.1.05.45.37.86.69 1.28.97l.04.04c.05 0 .05.05.1.05.82.6 1.46 1 1.97 1.33l.04.05c.33.23.74.46 1.15.73l1.01.6c.5.32 1.38.78 2.34 1.24.32.18.73.37 1.15.55.5.23.96.46 1.47.65.68.32 1.51.64 2.24.92.28.09.55.23.83.32l2.48.78c.82.27 1.92.55 2.84.73l1.2.28c.87.18 1.78.32 2.52.46.14 0 .27.05.46.05.6.09 1.1.13 1.51.18h.1a27.44 27.44 0 0 0 3.17.23h.08c.6 0 1.24.05 1.88.05h.1c.82 0 1.7-.05 2.47-.1.23 0 .46 0 .69-.04.5-.05 1-.1 1.6-.14a57.68 57.68 0 0 0 5.42-.92c.73-.14 1.56-.37 2.43-.6.1-.04.18-.04.28-.09.23-.05.4-.14.64-.18.18-.05.32-.1.5-.14 1.66-.5 3.77-1.29 5.42-2.07 1-.46 2.06-.96 3.03-1.47a88.55 88.55 0 0 0 3.71-2.2c.5-.33 1.01-.65 1.56-1.06.5-.33 1.01-.74 1.56-1.15.6-.46 1.29-1.06 2.02-1.66l.5-.41c.97-.78 2.2-2.02 3.22-3.13.64-.64 1.33-1.47 2.06-2.34a36.1 36.1 0 0 0 3.67-5.15c.6-.87 1.1-1.8 1.56-2.71.32-.6.64-1.24.97-1.84.09-.23.23-.46.32-.7a50.15 50.15 0 0 0 2.38-6.2v-.04c.14-.5.32-1.06.46-1.61v-.1c.37-1.46.74-3.07.97-4.4.04-.2.04-.37.09-.51.04-.19.04-.32.09-.5.14-.88.23-1.8.32-2.72 0-.1 0-.18.05-.32v-.28c.04-.55.09-1.06.09-1.65 0-.23 0-.46.04-.65v-.96c.32-.05.32-.05.32-.1ZM96.2 62.05c-.18.6-.32 1.15-.5 1.7a73.4 73.4 0 0 1-2.11 5.65 29.85 29.85 0 0 0 1.6-7.95 19.48 19.48 0 0 0 2.25-5.75c-.04.42-.14.88-.18 1.38a46.2 46.2 0 0 1-1.06 4.97ZM77.48 88.94c-.55.41-1.05.73-1.56 1.06-.04.04-.09.04-.09.09a73.58 73.58 0 0 1-6.56 3.58c-.6.28-1.15.5-1.65.7 2.57-1.39 5-3.23 7.16-5.52h.04c.23-.05.46-.14.7-.23a.7.7 0 0 1 .31-.1l.78-.27c.05-.05.14-.05.23-.1.32-.13.64-.22.92-.36.1-.05.18-.1.23-.1.23-.09.46-.22.69-.32l.27-.13c.23-.1.46-.23.64-.32.1-.05.14-.1.23-.14.28-.19.55-.32.83-.5.05-.05.1-.05.14-.1.23-.14.46-.28.69-.46.04-.05.09-.05.13-.1-.23.2-.41.38-.64.56a48.3 48.3 0 0 1-3.49 2.76ZM45.6 97.72c-.33-.05-.6-.05-.92-.1-.69-.09-1.29-.13-1.75-.22-.82-.14-1.78-.28-2.84-.51-.05 0-.1 0-.14-.05l-.6-.13-.54-.14c.18 0 .4.04.6.04.31 0 .59 0 .91-.04.1 0 .18 0 .27-.05.23 0 .42-.04.65-.04 2.3.64 4.54 1.1 6.74 1.28-.92.05-1.7 0-2.38-.04Zm-14.87-3.63-.37-.14c-.04 0-.04-.05-.09-.05-.18-.09-.41-.18-.64-.27l-.69-.33a20.6 20.6 0 0 1-1.15-.55c-.23-.09-.45-.23-.68-.36-.6-.33-1.2-.6-1.66-.88a5 5 0 0 0-.5-.27l-.55-.33c-.41-.27-.83-.5-1.15-.73a5.44 5.44 0 0 0-.64-.41 41.66 41.66 0 0 0-1.56-1.06c-.28-.19-.55-.42-.83-.6.23 0 .5-.1.78-.18a30.46 30.46 0 0 0 9.13 4.4c.05.06.05.1.1.1.04.05.09.1.13.19.1.09.19.23.28.32l.14.13.32.33.13.13c.1.1.23.19.33.28.04.05.09.1.18.14.1.09.23.18.32.27l.18.14c.1.1.19.14.33.23.04.05.13.1.18.14.1.1.23.14.32.23.05.05.14.1.18.1.1.08.23.13.33.18.04.04.09.04.13.09a4.5 4.5 0 0 0-.73-.23c-.14-.05-.32-.14-.5-.19a9.07 9.07 0 0 0-1.75-.82Zm-12.39-7.63c-.04 0-.04-.05-.09-.05-.32-.28-.6-.55-.96-.83a79.52 79.52 0 0 1-3.44-3.4l-.05-.05a36 36 0 0 1-1.51-1.74l-.05-.05a22.24 22.24 0 0 1-1.56-2.02c-.32-.41-.64-.92-1-1.43-.06-.04-.1-.13-.15-.18.42.32.92.55 1.47.78a36.16 36.16 0 0 0 8.3 9.06c-.04.27-.04.55 0 .73l-.18-.14-.04-.04c-.19-.18-.46-.41-.74-.64ZM5.36 69.22c-.05-.1-.05-.14-.1-.19a39 39 0 0 1-1.05-2.66v-.05l-.05-.18-.68-2.07c-.19-.55-.32-1.1-.5-1.61l-.47-1.8v-.04a11.7 11.7 0 0 1-.23-1.15c.05.1.05.19.1.28.04.09.04.18.09.23.04.18.13.32.18.5.05.1.1.19.1.23l.22.5.14.28c.1.14.14.33.23.46.04.1.1.19.18.28.1.14.14.28.23.41.05.1.14.19.19.28l.22.37a52.1 52.1 0 0 0 3.5 6.8l.54 1.7a5.84 5.84 0 0 0-.04 2.67c-.1-.14-.14-.23-.23-.37a81.57 81.57 0 0 1-2.57-4.87ZM3.25 35.15c.36-1.1 1.19-3.53 2.15-5.74a30.6 30.6 0 0 0-1.6 7.95 21.4 21.4 0 0 0-2.25 5.7c.05-.41.1-.83.18-1.24a54.7 54.7 0 0 1 1.52-6.67ZM20.27 10.8c.5-.41 1-.73 1.47-1.06a58.53 58.53 0 0 1 5.04-3.08c.1-.04.23-.13.33-.18.64-.32 1.33-.69 2.06-1.01.78-.37 1.51-.7 2.2-.92a26.57 26.57 0 0 0-7.1 5.47c-.74.23-1.43.46-2.12.69h-.05c-.27.1-.5.18-.78.32-.04 0-.04.05-.09.05-.23.09-.46.23-.69.32-.04 0-.09.04-.09.04-.23.1-.46.23-.64.33-.05.04-.1.04-.14.09-.18.1-.41.23-.6.32-.09.05-.13.1-.22.14-.19.09-.32.18-.5.27-.1.05-.2.1-.24.14-.13.1-.32.19-.46.28-.09.04-.18.14-.32.23h-.04c.64-.55 1.24-1.1 1.83-1.57l1.15-.87Zm32.25-9.74c.23 0 .46.04.74.04.82.1 1.79.14 2.52.28h.05c.14 0 .27.04.41.04l3.4.6c.13.05.23.05.36.1.1 0 .14.04.23.04h-1.47c-.13 0-.27.05-.4.05h-.2c-.08 0-.22.04-.31.04a37.43 37.43 0 0 0-6.8-1.29h.28c.28 0 .64 0 .96.05.05.05.14.05.23.05Zm13.36 2.8c.23.1.5.18.78.28l.73.27.87.37.32.14c.05 0 .1.04.14.04a57.82 57.82 0 0 1 5.32 2.72c.55.32 1.2.69 1.7 1.05.18.14.41.28.64.42h.05c.46.32 1 .69 1.42 1l.64.51c-.23.05-.46.14-.69.28a30.58 30.58 0 0 0-8.99-4.32c-.04-.05-.04-.1-.09-.1a.45.45 0 0 1-.14-.18c-.09-.09-.18-.23-.27-.32-.05-.05-.1-.1-.19-.14l-.27-.27-.18-.14-.28-.28-.18-.13c-.1-.1-.19-.19-.32-.23-.05-.05-.14-.1-.19-.14-.09-.1-.18-.14-.32-.23l-.18-.14c-.1-.1-.23-.14-.32-.23a1 1 0 0 0-.23-.14c-.1-.04-.23-.14-.32-.18-.05-.05-.1-.05-.19-.1l.37.14c.09.05.18.05.27.1.05-.05.1-.05.1-.05ZM83.3 14.79c.69.64 1.33 1.33 1.93 1.98l1.33 1.56c.69.83 1.28 1.6 1.88 2.4.32.45.69.96 1 1.42-.4-.33-.9-.6-1.5-.79a36.9 36.9 0 0 0-8.17-8.96c.04-.23.04-.46.09-.69a57.77 57.77 0 0 1 3.44 3.03c-.05 0 0 .05 0 .05Zm7.8 9.98a75.72 75.72 0 0 1 2.43 4.73l.32.69c.28.64.6 1.43.88 2.16l.13.32v.05c.32.96.74 2.16 1.01 3.08.19.6.37 1.33.55 2.02.14.5.23 1.06.32 1.56-.04-.09-.04-.18-.09-.23l-.14-.41-.13-.37c-.05-.14-.14-.27-.19-.41l-.13-.32c-.05-.14-.14-.28-.19-.42l-.14-.32a1 1 0 0 0-.22-.37l-.19-.32-.23-.37a.85.85 0 0 0-.18-.27c-.96-2.3-2.16-4.6-3.49-6.8l-.55-1.7c.23-1.1.23-2.03.05-2.72l.13.28c.05.09.05.14.05.14Zm1.33 46.88a88.8 88.8 0 0 1-2.38 4.14c-.6.83-1.24 1.66-1.93 2.44l.14-.28c.13-.23.27-.5.36-.78.1-.18.19-.37.23-.55.14-.28.23-.55.37-.83.1-.18.14-.37.18-.6.1-.27.23-.55.32-.87.05-.18.1-.41.19-.6a14.97 14.97 0 0 0 .37-1.52c.04-.32.13-.6.18-.91.04-.23.04-.46.09-.65l.14-.92c.04-.23.04-.46.04-.69.05-.32.1-.64.1-.96 0-.23 0-.5.04-.74 0-.32.05-.64.05-.96v-.05l.5-.41a16.95 16.95 0 0 0 3.44-4.05 27.94 27.94 0 0 1-2.43 9.8Zm-9.86 12.97c-.1.09-.23.18-.32.27-.1.1-.23.19-.33.23l-.4.28c-.1.04-.2.14-.28.18l-.42.28c-.09.04-.18.14-.27.18-.14.1-.28.14-.42.23l-.32.19c-.13.09-.27.13-.36.23-.14.04-.23.13-.37.18-.14.05-.28.14-.37.18-.14.05-.23.14-.36.19a.92.92 0 0 0-.37.18c-.14.05-.28.14-.41.18-.14.05-.23.1-.37.14-.14.05-.28.14-.41.19l-.37.13c-.14.05-.28.1-.46.19-.14.04-.23.09-.37.14l-.46.13c-.04 0-.04 0-.09.05.6-.64 1.15-1.29 1.65-1.98a31.08 31.08 0 0 0 10.19-6.66c-.14.18-.28.37-.37.55l-.32.46c-.18.23-.37.5-.6.73-.09.14-.18.28-.32.37 0 .05-.04.05-.04.1-.23.22-.42.45-.64.68-.05.1-.14.14-.19.23l-.14.14-1 .97c-.28.09-.46.27-.7.46Zm-19.5 11.3c-.46.14-.97.28-1.47.37-.69.14-1.38.28-2.07.37A20.31 20.31 0 0 0 66 93.03c1.1-.97 2.02-2.02 2.85-3.17.36-.05.73-.05 1.05-.1.1 0 .14 0 .23-.04.28-.05.6-.1.87-.1.14 0 .23-.04.37-.04l.74-.14c.13 0 .22-.04.36-.04.32-.05.64-.14.97-.19h.09c.27-.04.55-.13.82-.18a26.1 26.1 0 0 1-10.5 6.76l-.46.13h-.32Zm-22.8.51h-1.7c-.1 0-.19 0-.33-.05h-.22c-.1 0-.23-.04-.33-.04-.09 0-.13 0-.23-.05-.09 0-.22-.04-.32-.04-.04 0-.13-.05-.18-.05-.1-.05-.23-.05-.32-.1-.05 0-.14-.04-.18-.04a7.6 7.6 0 0 1-.5-.14c-.2-.04-.38-.13-.56-.18a235.5 235.5 0 0 0-.78-.37.94.94 0 0 1-.23-.13l-.27-.14c-.1-.05-.14-.1-.23-.14-.1-.05-.19-.14-.28-.18-.1-.05-.14-.1-.23-.14-.09-.05-.18-.14-.27-.19-.1-.04-.14-.09-.23-.13-.1-.05-.19-.14-.28-.19a.8.8 0 0 1-.23-.18c-.09-.1-.18-.14-.27-.23-.1-.05-.14-.14-.23-.19-.1-.09-.19-.13-.28-.23l-.18-.18-.28-.27-.18-.19c-.1-.1-.18-.18-.23-.27.28.09.55.13.78.18a53.47 53.47 0 0 0 9.22 3.81h-.09c-.18 0-.27 0-.37.05ZM19.85 87.7c-.05-.05-.05-.05 0 0-.19-.14-.28-.42-.28-.97a13 13 0 0 0 1.29.92c-.46.18-.83.18-1.01.05Zm-.28-1.24c.05-.42.18-.97.46-1.75.78.69 1.6 1.38 2.48 2.02a10 10 0 0 1-1.42.83l-1.52-1.1ZM8.75 75.52a4.71 4.71 0 0 1-.46-3.36c.7 1.7 1.52 3.4 2.57 5.06a4.41 4.41 0 0 1-2.1-1.7ZM8.4 71.7c0-.1.04-.18.09-.32a67.74 67.74 0 0 0 4.68 6.3c-.74-.1-1.38-.23-1.93-.42A25.5 25.5 0 0 1 8.4 71.7ZM6.83 26.6a49.5 49.5 0 0 1 1.65-2.85c0-.04.04-.04.04-.09a28.7 28.7 0 0 1 2.34-3.08v.05c-.18.32-.32.64-.5.96-.05.14-.1.23-.18.37l-.42 1.06-.14.41c-.13.32-.27.7-.36 1.01l-.14.46c-.1.37-.23.7-.32 1.06-.05.18-.1.32-.1.5-.08.33-.13.7-.22 1.06-.05.19-.05.37-.1.56l-.13 1c-.05.2-.05.42-.05.65l-.14 1.01c0 .23 0 .46-.04.7 0 .31-.05.63-.05 1v.05l-.5.41a16.96 16.96 0 0 0-3.44 4.05 28.8 28.8 0 0 1 2.8-10.35ZM58.76 2.43c.19 0 .37 0 .55-.05h1.15c.19 0 .37.05.5.05.19 0 .37.04.51.09.18.04.37.04.5.09h.05c.14.04.32.1.46.1h.1l.45.13c.18.04.37.14.55.18l.23.1.32.13a588.2 588.2 0 0 1 .5.28c.1.04.19.09.28.18.1.05.14.1.23.14.1.05.19.14.28.18.09.05.13.1.23.14.09.05.18.14.27.19.1.04.14.09.23.13.1.05.18.14.28.19.09.04.13.09.23.18.09.1.18.14.27.23.1.05.14.14.23.19l.28.22c.09.05.13.14.23.19l.27.27.18.19c.1.09.19.18.23.27-.27-.09-.55-.13-.78-.18a53.46 53.46 0 0 0-9.22-3.81h.41c-.04 0-.04 0 0 0Zm31.48 20.91c.55.92.69 2.02.46 3.36-.7-1.7-1.52-3.4-2.57-5.01a4.1 4.1 0 0 1 2.1 1.65Zm.37 3.77c0 .1-.05.18-.1.32a67.73 67.73 0 0 0-4.68-6.3c.74.1 1.38.23 1.93.42 1.2 1.8 2.16 3.68 2.85 5.56Zm5.23 10.66c.09.14.13.33.23.46.04.1.09.19.09.23.04.14.14.33.18.51.05.1.05.18.1.23.04.18.13.37.18.5.04.1.04.14.09.24.09.23.14.5.23.73.09.41.23.83.27 1.24.05.14.05.32.1.46l.13.78v.05c0 .18.05.32.05.5 0 .19.04.33.04.51a42.46 42.46 0 0 0-2.01-7.22c.09.14.13.33.22.46.05.19.1.23.1.32Zm1.65 9.34c0 .18-.05.41-.1.6-.04.22-.04.45-.09.68l-.13.6-.14.7c-.05.17-.1.4-.18.59-.05.23-.14.46-.19.69a3.2 3.2 0 0 1-.23.6c-.09.23-.13.46-.23.68l-.27.6-.28.7c-.09.18-.18.4-.32.59-.09.23-.23.46-.32.64 0 .05-.05.1-.05.1a41.13 41.13 0 0 0-4.35-13.7c1.37-2.4 1.92-5.34 1.51-8.7.1.1.18.2.23.28l.27.28c.1.14.23.23.33.37.09.09.18.18.23.27l.27.37c.1.1.14.19.23.28l.28.41c.04.1.13.18.18.28.1.13.18.27.27.41.05.1.14.18.19.28a39.95 39.95 0 0 1 2.9 10.25c-.01.18-.01.32-.06.5.1.14.05.37.05.65Zm-3.17 8.91c-.14.19-.27.42-.36.6l-.42.65c-.14.18-.27.4-.41.6-.14.22-.32.4-.46.64-.14.18-.32.36-.46.6l-.5.64c-.19.18-.32.37-.5.6-.15.18-.33.36-.47.55v-.1l-.27-1.79c0-.04-.05-.14-.05-.18-.14-.6-.23-1.2-.41-1.84 0-.05-.05-.14-.05-.18-.13-.6-.32-1.25-.46-1.84 0-.05-.04-.1-.04-.19l-.55-1.84c0-.04-.05-.09-.05-.18a26.8 26.8 0 0 0-.64-1.84c0-.04-.05-.09-.05-.14-.23-.6-.45-1.24-.73-1.83 0-.05-.05-.1-.05-.14l-.82-1.84c0-.05-.05-.1-.05-.14-.18-.41-.41-.83-.6-1.24a10.62 10.62 0 0 0 4.82-4.23 42.86 42.86 0 0 1 4.32 13.84c-.05.04-.05.09-.1.13-.36.23-.5.46-.64.7Zm-3.67 7c.05.31.05.64.05.96 0 .27.04.5.04.78v1.47a19.41 19.41 0 0 1-6.65 3.4c.23-1.1.41-2.16.55-3.3.05 0 .05-.05.1-.05.36-.28.77-.56 1.14-.88.1-.09.23-.18.32-.27a30.35 30.35 0 0 0 1.65-1.43c.37-.32.7-.6 1.01-.92.14-.14.28-.23.37-.37l.96-.96c.05-.1.14-.14.23-.23.05.27.05.55.1.87.09.37.09.65.13.92Zm.05 5.1c0 .32-.05.6-.1.87-.04.23-.04.5-.09.73l-.13.88c-.05.23-.1.46-.1.69-.04.27-.13.55-.18.82l-.14.7c-.09.27-.13.54-.23.82-.04.23-.13.46-.18.64l-.27.83c-.1.19-.14.42-.23.6-.1.27-.23.5-.33.78-.09.18-.18.41-.22.6l-.42.78-.27.55-.37.6a30.29 30.29 0 0 1-10.42 7.12 41.17 41.17 0 0 0 7.07-16.27 19.97 19.97 0 0 0 6.7-3.35c0 .27 0 .55-.05.82-.04.28-.04.55-.04.78ZM74.27 88.74c-.09.05-.23.05-.32.1l-.5.13c-.1.05-.23.05-.33.1l-.55.13c-.09 0-.23.05-.32.05-.18.05-.36.1-.55.1-.09 0-.23.04-.32.04-.18.04-.37.04-.55.09-.1 0-.23.05-.32.05-.18.04-.41.04-.6.09-.09 0-.23 0-.32.04-.18 0-.32.05-.5.05.23-.32.46-.64.64-1.01 2.3-.46 4.5-1.1 6.6-1.93-.54.69-1.05 1.33-1.65 1.93-.18-.05-.27 0-.4.04Zm-29.36 6.49-.32.13c-.1.05-.19.1-.28.1l-.32.13c-.1.05-.18.05-.28.1-.09.04-.22.04-.32.09-.09.04-.18.04-.27.09-.1.05-.23.05-.32.1-.1.04-.19.04-.28.08-.09.05-.23.05-.32.1-.1 0-.18.04-.27.04-.1 0-.19.05-.33.05-.09 0-.18.04-.27.04-.1 0-.14 0-.18.05a51 51 0 0 1-8.95-3.54c1.33.27 2.61.37 3.85.37 1.47 0 2.9-.19 4.18-.55a40.5 40.5 0 0 0 5.04 2.48c-.04.04-.13.04-.18.09 0 0-.1.05-.18.05ZM1.69 56.53v-.1l-.14-.77c0-.14-.05-.23-.05-.37v-.19c0-.18-.04-.36-.04-.6.41 2.4 1.1 4.74 1.97 7.13-.5-.96-.92-1.97-1.24-2.99 0-.04 0-.09-.04-.09-.05-.18-.1-.37-.19-.6-.09-.36-.18-.68-.23-1.05 0-.14-.04-.23-.04-.37Zm6.65-20.69c-.05-.32-.05-.64-.05-.96 0-.28-.04-.5-.04-.78v-1.47a19.41 19.41 0 0 1 6.65-3.4 37.21 37.21 0 0 0-.55 3.26c-.27.18-.5.41-.78.6-.23.18-.5.36-.73.55-.28.23-.55.41-.78.64l-.74.6c-.23.23-.5.46-.73.64-.23.23-.5.42-.74.65l-.68.69c-.19.18-.42.4-.6.6-.05-.28-.05-.56-.1-.88-.08-.23-.08-.5-.13-.74Zm-.05-5.14c0-.33.05-.6.1-.88.04-.23.04-.5.09-.73l.14-.88c.04-.23.04-.46.09-.69.04-.27.13-.55.18-.87l.14-.69.27-.83c.05-.18.1-.41.19-.64l.27-.83c.1-.18.14-.41.23-.6l.32-.78c.1-.18.14-.36.23-.55l.42-.78c.09-.18.18-.37.27-.5.1-.19.23-.37.37-.6A29.98 29.98 0 0 1 22 12.68a41.17 41.17 0 0 0-7.06 16.27 18.76 18.76 0 0 0-6.7 3.35c0-.27 0-.55.04-.82v-.78ZM54.13 3.57c.05 0 .1-.04.1-.04l.45-.19c.05 0 .05-.04.1-.04.18-.05.31-.14.5-.19.04 0 .04 0 .09-.04.18-.05.32-.1.5-.14h.1c.18-.05.32-.1.5-.14h.05c.18-.04.32-.09.5-.14h.05c.18-.04.32-.04.5-.09h.18A51 51 0 0 1 66.7 6.1c-2.93-.55-5.69-.5-8.07.19a39.43 39.43 0 0 0-5.05-2.49c.23-.09.37-.18.55-.23Zm25 7.59c.05 0 .05 0 0 0 .05.05.05.05 0 0 .19.14.28.41.28.96-.41-.32-.83-.64-1.28-.91.45-.19.82-.19 1-.05Zm11.06 19.4c.14.09.23.23.37.32.1.1.23.18.32.28.14.09.23.23.37.32l.27.27.32.32.1.1c.46 3.35-.05 6.34-1.38 8.73a43.43 43.43 0 0 0-3.72-6.02c1.33-1.8 2.3-3.36 2.94-4.69l.1.1c.08.04.22.13.31.27ZM86.16 47.1c.32.64.6 1.28.87 1.93v.04c.27.65.55 1.29.78 1.93v.05l.69 1.93v.05c.22.64.4 1.28.6 1.93V55c.18.65.36 1.29.5 1.93V57l.4 1.93v.05c.15.64.24 1.28.33 1.93v.04l-.69.7c-.23.22-.41.45-.64.68l-.69.65-.73.69c-.23.18-.46.36-.64.55-.28.23-.56.5-.88.73-.18.14-.4.32-.6.46-.27.19-.54.42-.77.6a63.4 63.4 0 0 0-.6-19.9c.46-.14.92-.28 1.33-.46.28.5.5.96.74 1.47ZM68.58 89.67c-.18 0-.41.05-.6.05h-3.24c-.18 0-.41 0-.6-.05-.14 0-.27 0-.36-.04-.19 0-.42-.05-.6-.05-.14 0-.28-.04-.41-.04-.19 0-.42-.05-.6-.05-.1 0-.18-.05-.28-.05 2.62-.04 5.14-.32 7.57-.78a9 9 0 0 1-.64.97c-.14.04-.18.04-.23.04ZM53.3 89.4a2 2 0 0 1-.32.27l-.27.28c-.1.1-.23.18-.32.27l-.28.28c-.1.1-.23.18-.32.28-.1.09-.18.18-.28.23-.09.09-.22.18-.32.27-.09.1-.18.14-.27.23l-.32.28c-.1.09-.19.14-.28.23-.09.09-.23.18-.32.27-.1.05-.18.14-.27.19-.1.09-.23.18-.33.23-.09.04-.18.14-.27.18-.1.1-.23.14-.32.23-.1.05-.19.14-.28.18-.09.1-.23.14-.32.23-.1.05-.18.1-.27.19-.1.09-.23.14-.33.18l-.27.14-.32.18-.28.14-.32.19-.27.13c-.1.05-.23.1-.32.19-.05 0-.05.04-.1.04-1.7-.64-3.4-1.47-5.04-2.43 1.56-.5 2.98-1.24 4.17-2.26.83-.73 1.56-1.6 2.11-2.52 2.25.6 4.5 1 6.75 1.33l-.05.05c-.18.09-.27.23-.37.32Zm-27.39-5.84-.13-.41-.14-.42c-.05-.14-.1-.27-.14-.46-.05-.14-.1-.27-.1-.41-.04-.14-.08-.32-.13-.46s-.1-.28-.1-.41a1.93 1.93 0 0 1-.08-.46c-.05-.14-.05-.28-.1-.42-.04-.14-.04-.32-.09-.46-.04-.14-.04-.32-.09-.46-.04-.14-.04-.32-.09-.46-.05-.14-.05-.32-.1-.46-.04-.13-.04-.32-.08-.46-.05-.18-.05-.32-.1-.5-.04-.14-.04-.32-.09-.46v-.1a54.97 54.97 0 0 0 3.76 5.15c-.77.74-1.46 1.38-2.15 1.98.04-.04 0-.18-.05-.32ZM9.9 36.44c.23-.23.46-.41.69-.64.23-.23.5-.46.73-.7.23-.18.46-.36.64-.54l.88-.74c.18-.14.4-.32.64-.46.27-.18.5-.41.78-.6a63.69 63.69 0 0 0 .6 19.95c-.46.14-.92.28-1.34.46l-.68-1.42v-.05c-.32-.6-.6-1.24-.88-1.93v-.04a34 34 0 0 1-.78-1.93v-.05l-.68-1.98v-.04a24 24 0 0 1-.6-1.98v-.05c-.18-.64-.37-1.28-.5-1.93v-.04l-.42-1.93v-.05a9.68 9.68 0 0 1-.41-1.93v-.05l.69-.68.64-.65ZM34.13 9.1c.13 0 .32 0 .5.05.32 0 .6.04.92.04.18 0 .41.05.6.05.27.04.54.04.82.09.1 0 .18.05.28.05-2.62.04-5.14.32-7.57.78a9 9 0 0 1 .64-.97c.82-.04 1.65-.09 2.48-.09h1.33Zm11.56.37c.09-.1.18-.19.27-.23.14-.1.23-.23.37-.32.1-.1.18-.14.23-.23.14-.1.23-.23.37-.32.09-.1.18-.14.23-.23.13-.1.23-.23.36-.33.1-.04.14-.13.23-.18.14-.1.23-.23.37-.32.1-.05.14-.14.23-.19.14-.09.27-.18.37-.32.09-.04.13-.09.23-.18l.4-.28c.05-.04.15-.09.2-.14l.4-.27c.05-.05.14-.1.19-.14l.41-.28.18-.13.42-.28c.04-.04.09-.04.18-.1.14-.08.28-.17.41-.27.05-.04.1-.04.14-.09.14-.09.28-.18.46-.23.05-.04.1-.04.14-.09.14-.1.32-.14.46-.23.04 0 .09-.05.13-.05l.28-.13c1.7.64 3.4 1.47 5.05 2.43-1.56.5-2.99 1.24-4.18 2.25-.82.74-1.56 1.61-2.1 2.53-2.26-.6-4.5-1.05-6.75-1.33l.04-.05.28-.27Zm33.17 4.87c-.6 1.66-1.79 4.14-4 7.86-.04-.23-.04-.5-.08-.73 0-.1-.05-.14-.05-.23l-.14-.74c0-.1-.04-.18-.04-.23l-.14-.69c0-.1-.05-.18-.05-.27l-.13-.65c0-.09-.05-.18-.05-.27l-.14-.65c0-.09-.04-.18-.04-.27l-.14-.6c-.05-.1-.05-.18-.1-.28-.04-.18-.08-.41-.18-.6-.04-.09-.04-.18-.09-.27a2.6 2.6 0 0 0-.18-.55c-.05-.1-.05-.19-.1-.28 0-.04-.04-.09-.04-.14a32.86 32.86 0 0 1 3.12-2.48c.87.65 1.7 1.34 2.57 2.07Zm-2.39-2.25a9.14 9.14 0 0 1 1.43-.83l1.51 1.1c-.05.42-.18.97-.46 1.75a75.65 75.65 0 0 0-2.48-2.02Zm-.55 10.94c.19.04.37.14.55.18.19.05.37.1.5.19.2.04.38.13.56.18.18.05.37.14.5.18.19.05.37.14.5.19.2.04.38.14.51.18.19.05.32.14.5.19.2.04.33.13.51.18.19.05.32.14.5.18l.51.23c.14.1.32.14.46.23.18.1.32.14.5.23.14.1.33.14.46.23.14.1.33.14.46.23.14.1.32.14.46.23.14.1.32.14.46.23.14.1.28.14.46.23.14.1.32.19.46.23.14.1.27.19.41.23.14.1.28.19.41.23l.42.28.41.27a2976.49 2976.49 0 0 0 .83.56l.4.27c.15.1.28.19.38.28.13.09.27.18.36.27.14.1.23.19.37.28l.37.27.36.28c.05 0 .05.05.05.05a28.77 28.77 0 0 1-2.89 4.64 58.7 58.7 0 0 0-11.29-11.77l.55.14Zm8.22 20.13c.36.65.73 1.29 1.05 1.93v.05l.14.32a9.8 9.8 0 0 1-1.29.46A52.37 52.37 0 0 0 83 41.27c.41.64.78 1.24 1.15 1.88ZM84 66.55c-.37.28-.78.55-1.15.78-.14.1-.27.14-.37.23-.45.28-.91.6-1.37.88a74.6 74.6 0 0 1-4 2.2 28.2 28.2 0 0 1-5.18-.37 43.75 43.75 0 0 0-2.43-7.67l.14-.42.27-.78c.19-.46.32-.96.5-1.42.1-.23.15-.46.24-.74.13-.5.32-1 .46-1.47 0-.04.04-.1.04-.14.37-1.24.74-2.53 1.1-3.81.05-.19.1-.32.14-.5.1-.42.18-.84.32-1.25.1-.32.19-.69.23-1.01l.28-1.15c.09-.37.18-.73.23-1.15.04-.14.04-.32.09-.46.78-.69 1.56-1.33 2.34-2.02 1.33.27 2.66.41 3.9.41 1.47 0 2.84-.18 4.13-.55a61.58 61.58 0 0 1 .55 20.04c-.14.14-.28.28-.46.37ZM62.3 77.58c-.14.28-.28.5-.46.78-.23.37-.41.7-.64 1.02-.19.27-.33.5-.46.78-.23.32-.42.64-.65.96l-.5.78-.64.92c-.19.23-.37.51-.55.74-.23.28-.46.55-.65.87l-.55.74-.64.78c-.18.23-.41.46-.6.74-.22.27-.45.5-.68.73-.19.23-.42.46-.6.64h-.05a35.5 35.5 0 0 1-2.06-.64h-.05c-.68-.23-1.37-.46-2.01-.73-.05 0-.05 0-.1-.05-.68-.28-1.33-.5-2.02-.78-.04 0-.04 0-.09-.05-.13-.04-.27-.14-.36-.18.73-2.07.96-4.41.64-7.04.09 0 .23 0 .32-.04.14 0 .32 0 .46-.05.69-.04 1.42-.14 2.1-.18.15 0 .24-.05.38-.05.6-.04 1.14-.13 1.74-.23.18-.04.41-.04.6-.09l1.65-.27c.14-.05.32-.05.46-.1.68-.13 1.37-.23 2.06-.36.14-.05.23-.05.37-.1.55-.13 1.15-.23 1.7-.36.18-.05.36-.1.6-.14.54-.14 1.05-.28 1.6-.37.14-.05.27-.1.46-.1.04 0 .09 0 .13-.04-.04.1-.13.23-.18.32-.32.42-.5.79-.73 1.15Zm-37.53-1c.27.08.55.13.82.22.28.1.55.14.83.23.5.14 1 .23 1.51.32l.69.14 2.25.42c.18.04.41.04.6.09.18.04.36.04.55.09-.7.73-1.38 1.42-2.07 2.11a95.97 95.97 0 0 1-5.18-3.63ZM8.47 57.9a44.02 44.02 0 0 0 3.72 6.02 27.86 27.86 0 0 0-2.93 4.69A22.84 22.84 0 0 1 7.1 66.6c-.46-3.31.05-6.3 1.38-8.7Zm-4.2-14.38.41-.69c.14-.18.23-.37.37-.55a6 6 0 0 1 .46-.69 2640.78 2640.78 0 0 0 .91-1.2c.14-.18.32-.36.46-.6.14-.18.32-.36.46-.54l.14-.14c.14-.19.32-.32.46-.5.13-.2.32-.38.46-.56v.1l.27 1.79c0 .04.05.13.05.18.13.6.23 1.2.41 1.84 0 .04.05.14.05.18.13.6.32 1.2.45 1.84 0 .05.05.14.05.18l.55 1.84c0 .05.05.1.05.19.18.6.41 1.24.64 1.84 0 .04.05.09.05.18.22.6.45 1.24.73 1.84 0 .04.05.09.05.14l.82 1.84c0 .04.05.09.05.13.18.42.41.83.6 1.24a10.62 10.62 0 0 0-4.82 4.23A42.86 42.86 0 0 1 4.07 43.8c.14-.19.19-.23.19-.28ZM15 32.26a16.92 16.92 0 0 1 1.56-1.01c.46-.28.92-.6 1.38-.88l.18-.13a39.8 39.8 0 0 1 3.77-2.07 28.2 28.2 0 0 1 5.18.37 43.75 43.75 0 0 0 2.43 7.67l-.14.42c-.09.32-.23.6-.32.91-.14.42-.27.88-.46 1.3-.09.31-.18.64-.32.96l-.41 1.24c-.1.27-.18.55-.23.87l-.69 2.4c-.09.4-.23.82-.32 1.19-.1.32-.18.69-.23 1-.09.42-.23.84-.32 1.25-.1.32-.14.69-.23 1.01-.1.41-.18.83-.27 1.24-.05.14-.05.32-.1.46-.78.7-1.56 1.34-2.34 2.02-2.93-.55-5.69-.5-8.07.14a62.84 62.84 0 0 1-.5-20.04l.45-.32Zm21.7-11.03c.14-.28.28-.5.46-.79.23-.36.42-.68.65-1 .18-.28.32-.51.45-.79.23-.32.42-.64.65-.96l.5-.78.64-.92c.19-.23.37-.51.55-.74.23-.28.46-.55.65-.87l.55-.74.64-.78c.18-.23.41-.46.6-.74.23-.27.46-.5.68-.73.19-.23.42-.46.6-.64h.05c.69.18 1.37.4 2.06.64h.05a30.03 30.03 0 0 1 2.11.78c.69.28 1.33.5 2.02.78.04 0 .04 0 .09.05.14.04.27.14.37.18a15.27 15.27 0 0 0-.65 7.03c-4.86.42-9.82 1.2-14.54 2.44.04-.1.14-.23.18-.32.23-.37.42-.74.64-1.1Zm8.4-11.17c2.3.27 4.59.73 6.84 1.33-.28.5-.55 1.06-.78 1.65a.65.65 0 0 0-.28-.09c-.04 0-.09-.04-.14-.04a33.9 33.9 0 0 0-1.92-.79c-.05 0-.1-.04-.14-.04l-1.93-.7c-.04 0-.09-.04-.13-.04-.65-.23-1.29-.41-1.93-.6-.05 0-.1-.04-.1-.04l.24-.23a.93.93 0 0 1 .27-.41Zm28.13 5.65.13.41c.05.14.1.28.14.46.05.14.1.28.1.42l.13.46c.05.13.1.27.1.41.04.14.08.32.08.46.05.14.05.28.1.41.04.14.04.33.09.46.04.14.04.33.09.46.05.14.05.33.1.46.04.14.04.32.08.46.05.14.05.32.1.46.04.19.04.32.09.5.04.15.04.33.09.47v.09a54.97 54.97 0 0 0-3.76-5.15c.78-.73 1.46-1.38 2.15-1.98.05.14.1.23.14.37-.05.05 0 .19.05.37Zm1.65 8.92c.04.37.04.73.09 1.06.05.32.05.64.1 1 0 .37.04.74.04 1.11 0 .32.04.69.04 1.01v1.66c-.09-.1-.13-.19-.23-.28-.91-1.01-1.88-1.98-2.84-2.94.96-1.47 1.83-2.9 2.61-4.23.05.23.05.46.1.64.04.32.09.65.09.97Zm1.47 7.5c.5.54.96 1.14 1.46 1.74v.04l1.38 1.8c.46.6.92 1.2 1.33 1.84.41.6.87 1.24 1.24 1.83v.05c.14.18.23.37.37.55-1.93 2.02-4.09 4.1-6.43 6.16l-1.74-.41c0-.05 0-.14.05-.19.09-.41.13-.78.23-1.2l.13-1.05c.05-.41.14-.83.19-1.24l.13-1.01.14-1.24c.05-.32.05-.7.1-1.01l.13-1.2c.05-.32.05-.69.1-1.01.04-.41.04-.83.09-1.2 0-.32.04-.69.04-1 0-.42.05-.79.05-1.2v-2.11c.36.32.69.64 1 1.05 0-.05 0-.05 0 0ZM73 49.73l-.28 1.33-.23.92c-.09.46-.23.87-.32 1.33-.09.28-.14.55-.23.83-.14.46-.23.96-.37 1.42 0 .05-.04.1-.04.19a117.19 117.19 0 0 1-2.07 6.43c0 .05-.04.14-.09.19a50.77 50.77 0 0 0-4.08-7.59 142.7 142.7 0 0 0 7.94-6.2c0 .04-.05.14-.05.18-.05.32-.1.64-.18.97Zm-25.33 35.8c-.46-.18-.92-.4-1.38-.6-.04 0-.04-.04-.09-.04l-1.97-.96c-.05 0-.05-.05-.1-.05-.63-.32-1.28-.69-1.92-1.06-.05 0-.05-.04-.1-.04l-1.92-1.1-.04-.05c-.65-.37-1.29-.78-1.89-1.2l-.04-.04-1.84-1.24-.04-.05c-.32-.23-.6-.46-.92-.64.37.04.69.04 1.06.09.4.04.82.1 1.28.1.37.04.73.04 1.1.04.41 0 .83.04 1.24.04h2.52c.65 0 1.24 0 1.88-.04h.37c.6 0 1.2-.05 1.75-.1.18 0 .4 0 .6-.04.36 0 .73-.05 1.1-.1.31 2.72.08 5.06-.65 7.09ZM33.07 78c-.18-.05-.37-.05-.55-.1.23-.22.46-.45.64-.68l.05.04.09-.09 1.05.83s.05 0 .05.04c.1.05.14.1.23.19l-1.2-.14c-.13-.1-.27-.1-.36-.1Zm-2.25-.37-1.47-.28-.73-.13-1.24-.28c-.32-.1-.64-.14-.92-.23l-1.05-.28c-.23-.04-.5-.13-.74-.18a73.5 73.5 0 0 0 5.37-1.8c.23.24.46.42.74.65l1.79 1.47.55.42c-.28.27-.55.6-.83.87-.27-.05-.55-.1-.87-.14-.23 0-.41-.04-.6-.1Zm-9.08-2.25c-.32-.1-.64-.23-.97-.32-.04 0-.04 0-.09-.05A38.3 38.3 0 0 1 9.4 68.8a28.76 28.76 0 0 1 2.89-4.65 58.7 58.7 0 0 0 11.37 11.81c-.13-.04-.27-.09-.36-.09-.1-.04-.14-.04-.23-.09l-.23-.1c-.32-.08-.6-.17-.92-.27-.04 0-.1 0-.18-.04ZM26 49.13l.28-1.33c.1-.33.14-.6.23-.92.1-.46.23-.88.32-1.34.1-.27.14-.55.23-.82.14-.46.23-.97.37-1.43 0-.04.04-.1.04-.18.6-2.07 1.24-4.1 1.93-6.07l.14-.37a.3.3 0 0 1 .09-.18c1.1 2.57 2.48 5.1 4.08 7.58a148.4 148.4 0 0 0-7.93 6.2c0-.04.04-.13.04-.18a6 6 0 0 1 .18-.96Zm25.33-35.81c.46.18.92.41 1.38.6.04 0 .04 0 .09.04l1.97.97c.05 0 .05.04.1.04.64.33 1.28.7 1.92 1.06.05 0 .05.05.1.05l1.92 1.1c.05 0 .05.05.1.05.63.36 1.23.78 1.87 1.2.05 0 .05.04.1.04.64.41 1.23.83 1.83 1.24l.05.05c.32.23.6.4.91.64-.18 0-.32-.05-.5-.05l-1.7-.14h-.37a27 27 0 0 0-1.92-.09h-.1c-2.75-.09-5.5-.04-8.25.19a13.5 13.5 0 0 1 .5-6.99Zm14.6 7.54c.17 0 .31.04.5.09l-.65.69-.09.1-1.05-.84h-.05a.8.8 0 0 1-.23-.18l1.1.14c.19-.05.32 0 .46 0Zm8.85 9.47c0 .04 0 .04 0 0 .13.18.27.32.41.46v2.3c0 .36-.05.78-.05 1.15 0 .36-.04.68-.04 1.05s-.05.78-.1 1.15c-.04.37-.04.74-.09 1.06-.04.37-.09.78-.09 1.15-.04.37-.04.73-.09 1.1l-.14 1.15-.13 1.1c-.05.37-.1.79-.19 1.15-.04.37-.09.74-.18 1.1-.05.37-.14.79-.19 1.16 0 .09-.04.13-.04.23a30.82 30.82 0 0 1-10.5-5.52c3.2-4.46 6.14-8.78 8.66-12.69l1.24 1.24.05.05c.46.5.96 1.06 1.47 1.6Zm-1.33 17.24-.14.69a146.36 146.36 0 0 1-8.12 6.34 64.52 64.52 0 0 0-6.43-8.27c1.52-2.03 2.99-4.05 4.4-6.03a32.64 32.64 0 0 0 10.6 5.57l-.13.68c-.05.33-.1.65-.18 1.02ZM65.97 70.6c-.19.41-.42.82-.6 1.24-.14.27-.23.5-.37.78-.18.41-.4.78-.6 1.15a16.7 16.7 0 0 1-1.05 1.93c-.04.04-.04.1-.09.18a79.37 79.37 0 0 1-14.77 2.48 26.54 26.54 0 0 0-4.09-10.48c2.8-1.47 5.6-3.08 8.4-4.78 4.36 2.8 9 4.97 13.72 6.35-.05.13-.14.27-.19.41-.13.28-.27.5-.36.74Zm-30.6 7.63h-.05c-.1 0-.19 0-.28-.05a3.82 3.82 0 0 0-.55-.37l-.04-.04c-.37-.28-.7-.55-1.06-.78a333.4 333.4 0 0 0 5.92-6.53c1.6-.78 3.21-1.61 4.86-2.44a26.06 26.06 0 0 1 4.04 10.4c-4.27.27-8.58.22-12.85-.2Zm-2.71-1.84c-.6-.46-1.2-.97-1.75-1.43 0 0-.04 0-.04-.04a5.81 5.81 0 0 0-.6-.5c2.75-1.07 5.55-2.26 8.49-3.64-1.88 2.16-3.76 4.18-5.5 6.07l-.56-.42-.04-.04Zm-8.54-2.16c-.04-.37-.04-.74-.09-1.06-.04-.32-.04-.64-.09-1.01 0-.37-.05-.74-.05-1.1 0-.33-.04-.7-.04-1.02V68.4c.09.1.14.18.23.23l.04.05c.5.55 1.06 1.1 1.56 1.65l1.24 1.24a98.56 98.56 0 0 0-2.61 4.23c-.05-.23-.05-.46-.1-.64-.04-.28-.09-.6-.09-.92Zm-.27-8.5c0-.37.04-.79.04-1.16 0-.36.05-.68.05-1.05s.05-.78.1-1.15c.04-.37.04-.74.08-1.06.05-.37.1-.78.1-1.15.04-.37.04-.73.09-1.1l.13-1.15.14-1.1c.05-.37.1-.79.19-1.15.04-.37.09-.74.18-1.1.05-.37.14-.79.18-1.16 0-.09.05-.13.05-.23a30.82 30.82 0 0 1 10.5 5.52 306 306 0 0 0-8.67 12.69c-.4-.42-.82-.83-1.23-1.24-.56-.56-1.06-1.1-1.56-1.66-.14-.14-.23-.27-.37-.41v-2.35Zm1.7-14.44.13-.69c2.57-2.16 5.28-4.27 8.12-6.34a64.52 64.52 0 0 0 6.43 8.27 395.27 395.27 0 0 0-4.4 6.02A32.65 32.65 0 0 0 25.22 53l.13-.69c.05-.32.1-.69.19-1.01Zm7.47-23.08c.19-.41.42-.82.6-1.24.14-.27.23-.5.37-.78.18-.41.41-.78.6-1.15.13-.27.27-.55.4-.78.24-.41.42-.78.65-1.15.05-.05.05-.1.1-.18a79.37 79.37 0 0 1 14.77-2.49c.5 3.54 1.92 7.13 4.08 10.49-2.8 1.47-5.6 3.08-8.4 4.78a53.42 53.42 0 0 0-13.67-6.35c.05-.14.14-.27.18-.41.1-.23.23-.5.32-.74Zm30.65-7.63c.1 0 .19 0 .28.05.18.14.37.27.55.37l.05.04c.36.28.68.55 1 .78a310.4 310.4 0 0 0-5.91 6.53c-1.61.78-3.22 1.61-4.87 2.44a26.06 26.06 0 0 1-4.04-10.4 73.8 73.8 0 0 1 12.71.15c.1.04.14.04.23.04Zm10.56 1.7-.6-.13-1.06-.28c-.32-.1-.68-.14-1-.23l-1.15-.28c-.32-.04-.64-.13-.97-.18-.4-.1-.82-.18-1.28-.23l-.87-.14c-.14 0-.23-.04-.37-.04.69-.74 1.38-1.43 2.07-2.12a81.63 81.63 0 0 1 5.23 3.63ZM68.8 63.84c-.04.18-.14.32-.18.5-.19.51-.37.97-.6 1.48a39.47 39.47 0 0 1-.83 1.98l-.31.73-.28.6a51.72 51.72 0 0 1-13.58-6.26 165.4 165.4 0 0 0 12.02-8 51.1 51.1 0 0 1 4.13 7.82c-.1.46-.23.78-.37 1.15ZM29.12 73.4c-.6-.55-1.14-1.06-1.7-1.6l-.04-.05-.18-.19c2.52-3.9 5.46-8.23 8.67-12.73a37.7 37.7 0 0 1 6.93 7.12c-1.24 1.47-2.48 2.9-3.72 4.32a131.1 131.1 0 0 1-9.04 3.91l-.92-.78Zm1.06-38.38c.05-.19.14-.33.18-.5.19-.51.37-.97.6-1.48.1-.23.18-.46.27-.64.19-.46.37-.92.56-1.34l.32-.73c.09-.23.18-.42.27-.6a51.72 51.72 0 0 1 13.58 6.25 165.4 165.4 0 0 0-12.02 8 51.09 51.09 0 0 1-4.13-7.81c.1-.46.23-.83.37-1.15Zm37.35-13.93c.23.04.41.04.64.09a79.14 79.14 0 0 0 2.25.41l1.2.28c.31.1.63.14.95.23l1.06.28c.23.04.5.13.73.18a73.4 73.4 0 0 0-5.36 1.8 55.88 55.88 0 0 0-2.53-2.12l-.55-.42c.28-.27.55-.6.83-.87.27.05.5.1.78.14Zm-1.15 1.38c.6.46 1.15.96 1.74 1.42l.05.05c.18.18.37.32.6.5a127.04 127.04 0 0 0-8.5 3.64c1.89-2.16 3.77-4.19 5.51-6.07l.55.41s0 .05.05.05Zm-18.21 37a64.5 64.5 0 0 1-7.62-6.99c3.3-4.4 6.74-8.87 10.23-13.14a64.49 64.49 0 0 1 7.62 6.98c-3.3 4.42-6.75 8.88-10.23 13.15ZM51 39.11c1.7-2.07 3.35-4.14 5.05-6.07a39.11 39.11 0 0 0 6.93 7.13c-1.43 1.97-2.9 3.95-4.36 5.97A73.5 73.5 0 0 0 51 39.11Zm-.41.09A455.79 455.79 0 0 0 40.4 52.3a56.91 56.91 0 0 1-6.33-8.23c3.9-2.8 7.94-5.51 12.11-8.04 1.47.96 2.98 2.02 4.4 3.17ZM40.4 52.71a64.08 64.08 0 0 0 7.57 7c-1.7 2.06-3.35 4.13-5.05 6.06A39.12 39.12 0 0 0 36 58.64c1.46-1.93 2.89-3.9 4.4-5.93Zm7.98 6.95c3.45-4.28 6.93-8.74 10.2-13.1a56.92 56.92 0 0 1 6.32 8.22c-3.9 2.8-7.94 5.52-12.11 8.05a96.85 96.85 0 0 1-4.4-3.17Zm14.69-19.72a37.7 37.7 0 0 1-6.93-7.13c1.24-1.47 2.48-2.9 3.72-4.32 3.12-1.47 6.14-2.8 9.03-3.9.32.27.6.54.92.82l.05.05c.55.5 1.1 1 1.65 1.56l.05.04.18.19a306 306 0 0 1-8.67 12.69Zm6.1-15.4a80.65 80.65 0 0 1 5.32-1.8c-.82 1.38-1.7 2.8-2.66 4.28a64.19 64.19 0 0 0-2.66-2.48ZM56 32.63c-.37-.5-.73-1.06-1.1-1.61 1.47-.78 2.9-1.52 4.36-2.2-1.1 1.23-2.16 2.52-3.26 3.8Zm-.14.18c-1.7 1.98-3.4 4.05-5.09 6.16a57.98 57.98 0 0 0-4.36-3.13c2.75-1.65 5.55-3.26 8.3-4.68.37.55.74 1.1 1.15 1.65ZM42.98 66.18c.37.5.73 1.06 1.1 1.61a97.2 97.2 0 0 1-4.36 2.2 140.6 140.6 0 0 0 3.26-3.8Zm.14-.13c1.7-2.03 3.4-4.1 5.1-6.16A57.95 57.95 0 0 0 52.56 63a151.46 151.46 0 0 1-8.3 4.69 15 15 0 0 0-1.15-1.65ZM31.88 30.19c-.14.28-.28.6-.37.92l-.5 1.2c-.14.32-.23.6-.37.91-.19.42-.32.83-.5 1.25-.1.27-.24.6-.33.91l-.13.42a43.07 43.07 0 0 1-2.25-7.17c1.56.23 3.12.6 4.72 1-.09.15-.18.38-.27.56Zm-4.77 41.6c.87.87 1.79 1.7 2.7 2.48a80.65 80.65 0 0 1-5.32 1.8c.78-1.34 1.7-2.76 2.62-4.28Zm40-3.17c.14-.28.23-.55.37-.83l.55-1.24c.1-.27.23-.55.32-.83.19-.41.37-.87.5-1.28l.28-.78c.05-.19.14-.33.19-.51a43.08 43.08 0 0 1 2.25 7.17c-1.56-.23-3.13-.6-4.73-1.01l.27-.69Zm2.07-50.1 1.47-1.48a52.14 52.14 0 0 1 3.67 5.01 73.18 73.18 0 0 0-5.14-3.54Zm-33.82 4.6-.55 1.05c-.13.27-.32.6-.46.87-.18.37-.36.7-.55 1.06-.13.27-.27.6-.45.92l-.55 1.1c-.14.28-.28.6-.42.92-.04.1-.09.18-.09.23h-.05l-.04.1a38.47 38.47 0 0 0-4.86-1.06c-.14-.79-.33-1.61-.42-2.44 2.7-1.1 5.55-2.07 8.49-2.85 0 .04-.05.1-.05.1Zm-10 27.9c-.09.4-.18.82-.23 1.28l-.13.64c-.56-.13-1.06-.27-1.56-.36.64-.55 1.28-1.15 1.97-1.7-.05 0-.05.04-.05.13Zm-.41 2.15v.14c-.1.42-.14.83-.23 1.24l-.14 1.01c-.04.42-.14.83-.18 1.25-.05.32-.1.64-.14 1l-.14 1.25c-.04.32-.04.69-.09 1.01l-.14 1.24c-.04.32-.04.69-.09 1.01-.04.42-.04.83-.09 1.2 0 .32-.05.69-.05 1 0 .42-.04.79-.04 1.2v2.12c-.32-.32-.6-.7-.92-1.06-.5-.6-1-1.15-1.47-1.75-.46-.6-.96-1.2-1.42-1.79-.46-.6-.92-1.2-1.33-1.84l-1.28-1.84c-.14-.18-.23-.36-.37-.55 1.93-2.02 4.08-4.09 6.42-6.16.55 0 1.1.14 1.7.32Zm-8.3 5.89c.13.18.22.37.36.55 0 .05.05.05.05.1.41.59.78 1.19 1.2 1.78-.01.05.04.05.04.1.4.6.82 1.2 1.28 1.74l.05.05L21 65.13l.05.04c.46.6.96 1.15 1.42 1.7l.05.05c.32.41.69.78 1.05 1.2V70c0 .32.05.64.05.96 0 .37.04.74.04 1.15 0 .33.05.65.1.97.04.37.04.73.09 1.1.04.32.09.65.09.97.05.23.05.41.1.64a65.52 65.52 0 0 1-7.4-16.73Zm7.15 16.73a59.72 59.72 0 0 1-11.33-11.81 48.55 48.55 0 0 1 4-4.7A63.91 63.91 0 0 0 23.8 75.8Zm39.83-.1c.18-.36.36-.68.6-1.05l.45-.87.55-1.1.42-.88.55-1.15c.13-.27.27-.6.41-.87l.14-.28h.04l.05-.09c1.65.46 3.26.83 4.86 1.06.19.83.32 1.65.42 2.43a70.74 70.74 0 0 1-8.5 2.85c-.04.05-.04 0 0-.04Zm10-27.94c.1-.41.18-.78.23-1.2l.14-.64c.55.14 1.05.28 1.56.37-.65.55-1.29 1.15-1.98 1.7.05-.05.05-.14.05-.23Zm-7.02-27.03c-.23-.05-.46-.1-.69-.1-.23-.04-.5-.04-.73-.08l-1.15-.14c-.41-.32-.83-.6-1.24-.87 0 0-.04 0-.04-.05a62.1 62.1 0 0 0-1.89-1.24l-.04-.05-1.88-1.2c-.05 0-.05-.04-.1-.04l-1.88-1.1c-.04 0-.04-.05-.09-.05-.64-.37-1.28-.69-1.92-1-.05 0-.1-.06-.1-.06-.64-.32-1.28-.64-1.92-.91-.05 0-.1-.05-.14-.05-.5-.23-.96-.46-1.47-.64.23-.6.5-1.15.78-1.66a61.4 61.4 0 0 1 16.56 7.13c-.68.69-1.37 1.42-2.06 2.11Zm-39.6 7.54c-1.6-.23-3.16-.32-4.68-.32 1.38-.7 2.8-1.34 4.27-1.93.1.73.23 1.51.41 2.25Zm-4.08 24.4a113.04 113.04 0 0 0-6.24 6.03c-.1-.18-.18-.32-.32-.5-.5-1.8-.92-3.6-1.24-5.38 2.3-.6 4.96-.65 7.8-.14Zm-6.97 4.93c-.37-.65-.78-1.29-1.1-1.93-.37-.65-.7-1.29-1.06-1.93-.05-.1-.1-.23-.18-.33.4-.18.82-.32 1.28-.46.32 1.52.64 3.08 1.06 4.65Zm-5.23-2.44c.78-.69 1.7-1.24 2.7-1.7.05.14.14.28.19.41a15676 15676 0 0 1 1.06 1.93 36.47 36.47 0 0 0 1.2 2.02c.08.14.17.33.26.47.05.23.14.46.18.69a73.3 73.3 0 0 0-4.03 4.73 45.6 45.6 0 0 1-3.72-6.07c.6-.87 1.28-1.74 2.16-2.48Zm21.6 22.94.83.14c.32.04.64.09.92.09.27.05.6.1.87.1.41.31.83.59 1.24.86l.05.05 1.83 1.24.05.05c.6.41 1.24.78 1.88 1.2.04 0 .04.04.09.04l1.88 1.1c.05 0 .05.05.1.05.64.37 1.28.69 1.87 1a36.6 36.6 0 0 0 2.02.97c.05 0 .1.05.14.05.5.23.96.46 1.47.64-.23.6-.5 1.15-.78 1.66a61.68 61.68 0 0 1-16.61-7.13c.78-.69 1.47-1.42 2.16-2.11Zm15.47 7.77c.09.04.18.09.27.09.05 0 .1.05.14.05.64.27 1.29.55 1.93.78.04 0 .09.04.14.04l1.92.7c.05 0 .1.04.14.04.64.23 1.29.41 1.93.6.04 0 .09.04.09.04l-.23.23-.32.32-.05.05a59.03 59.03 0 0 1-6.79-1.33c.37-.5.64-1.06.83-1.61Zm24.18-15.31c1.6.23 3.16.32 4.63.32-1.37.7-2.8 1.34-4.27 1.93a13.3 13.3 0 0 0-.36-2.25Zm4.08-24.4c2.25-2.03 4.36-4.05 6.24-6.03.1.14.18.32.32.5.5 1.8.92 3.59 1.24 5.38-2.3.6-4.95.7-7.8.14Zm6.29-6.4c-.14-.18-.23-.37-.37-.55 0-.05-.05-.05-.05-.1l-1.23-1.78-.05-.05c-.41-.6-.87-1.2-1.29-1.8l-.04-.04c-.46-.6-.92-1.2-1.38-1.75 0 0 0-.04-.04-.04-.46-.6-.97-1.15-1.43-1.75l-.04-.05c-.32-.4-.69-.78-1.06-1.19v-1.88c0-.33-.04-.65-.04-.97 0-.37-.05-.74-.05-1.15 0-.32-.04-.64-.09-.96-.05-.37-.05-.74-.1-1.1-.04-.33-.08-.65-.08-.97-.05-.23-.05-.42-.1-.65a65.77 65.77 0 0 1 7.44 16.78Zm-7.16-16.69a59.72 59.72 0 0 1 11.33 11.82 48.57 48.57 0 0 1-3.99 4.69 63.91 63.91 0 0 0-7.34-16.5Zm-6.29-4.68a61.68 61.68 0 0 0-16.6-7.13 9.55 9.55 0 0 1 2.06-2.44 11.83 11.83 0 0 1 4.27-2.3 46.75 46.75 0 0 1 11.83 10.35c-.5.46-1.05 1.01-1.56 1.52Zm-24.22-8.23c-.14.14-.28.27-.37.41a3.07 3.07 0 0 1-.64-.18 1.3 1.3 0 0 0-.41-.1l-.6-.13c-.18-.05-.32-.1-.5-.14-.19-.05-.33-.1-.51-.1l-.55-.13c-.14-.05-.28-.05-.41-.1-.14-.04-.28-.04-.37-.08 1.51.04 3.03.18 4.54.36l-.18.19Zm-5.92-.6c.1 0 .18.05.27.05l.74.13c.23.05.46.1.73.14l.74.14c.23.05.46.1.73.18.28.05.5.1.78.19.23.04.46.14.74.18.22.05.45.14.68.19a8.2 8.2 0 0 1-.6.64c-.22.23-.4.46-.64.69-.22.23-.4.5-.64.78-.23.23-.41.5-.64.74-.18.27-.41.5-.6.78-.23.27-.4.55-.64.82-.18.28-.37.56-.6.83-.18.28-.4.55-.6.88l-.54.82c-.19.32-.42.6-.6.92l-.55.83c-.18.32-.41.64-.6.96-.18.28-.32.56-.5.88-.18.32-.41.64-.6 1-.09.2-.18.33-.27.52a50.7 50.7 0 0 0-3.76 1.1h-.05c-.64.23-1.29.41-1.93.64l-.23.1a15.67 15.67 0 0 0-2.06.78l-.64.27c-.78-5.88.13-11.12 2.57-15.26 2.98-.69 6.1-.97 9.31-.92ZM20.32 28.72c-.23.14-.46.23-.7.37-.36.23-.73.41-1.1.64-.22.14-.5.28-.73.41-.37.23-.69.42-1 .65l-.74.46c-.32.23-.64.41-.92.64l-.55.41c.14-1.1.32-2.16.55-3.21 1.93-.55 4-.88 6.2-.92-.33.18-.65.37-1.01.55ZM1.46 52.53c0-.28.04-.5.04-.78 0-.18.05-.37.1-.5.04-.24.04-.51.09-.74.04-.19.09-.37.09-.55l.14-.74.13-.55c.05-.23.14-.5.23-.74.05-.18.14-.36.19-.55l.27-.73c.1-.19.14-.37.23-.55l.32-.74.28-.55c.14-.23.23-.46.37-.7 0-.04.04-.08.04-.08.6 4.64 2.07 9.28 4.36 13.7-1.38 2.34-1.93 5.33-1.51 8.64a24.68 24.68 0 0 1-2.57-3.31 39.68 39.68 0 0 1-2.8-10.12c-.05-.13 0-.27 0-.4Zm23.21 24.23c1.7 1.28 3.4 2.48 5.14 3.54l-1.47 1.47a52.13 52.13 0 0 1-3.67-5.01Zm5.37 3.67A61.5 61.5 0 0 0 46.7 87.6a9.55 9.55 0 0 1-2.07 2.44 10.9 10.9 0 0 1-4.26 2.25A46.24 46.24 0 0 1 28.48 81.9c.55-.46 1.06-.96 1.56-1.47Zm24.64 7.86c.46.14.87.23 1.33.37.1.05.23.05.32.1.37.09.74.18 1.1.22.1 0 .23.05.32.1.33.04.65.13.97.18a50.39 50.39 0 0 1-4.54-.37c.13-.23.32-.41.5-.6Zm5.55.97c-.04 0-.14 0-.18-.05-.14-.04-.28-.04-.46-.09-.18-.04-.41-.04-.6-.09-.13-.05-.32-.05-.46-.1l-.6-.13c-.18-.05-.31-.1-.5-.1l-.55-.13c-.18-.05-.32-.1-.5-.14l-.55-.14-.55-.13c-.14-.05-.28-.1-.46-.14.18-.23.41-.46.6-.65.22-.23.4-.45.64-.68.23-.23.41-.51.64-.79.23-.23.41-.5.64-.73.19-.28.41-.5.6-.78.23-.28.41-.55.64-.83.18-.28.37-.55.6-.78.18-.28.41-.55.6-.88l.54-.82c.19-.32.42-.6.6-.92.18-.28.37-.55.5-.83.19-.32.42-.64.6-.97.19-.27.32-.55.5-.82l.6-1.01.28-.5c.5-.15 1.05-.29 1.56-.42.14-.05.23-.1.37-.1.55-.13 1.1-.32 1.6-.5.18-.05.37-.14.55-.18.5-.19 1.01-.33 1.52-.51l.4-.14c.65-.23 1.3-.46 1.89-.69.14-.04.23-.09.37-.14l.36-.13c.78 5.88-.13 11.12-2.57 15.26-2.93.55-6.05.83-9.22.78Zm17.44-18.62c.46-.23.91-.46 1.37-.73l.5-.28 1.3-.73c.13-.1.22-.14.36-.23.55-.33 1.06-.65 1.56-1.02.1-.09.23-.13.32-.23.41-.27.83-.55 1.2-.82.04-.05.09-.05.13-.1-.14 1.06-.37 2.12-.55 3.18-1.93.6-3.99.92-6.2.96Zm7.7-25.7c0-.04-.04-.09-.04-.13-.32-.6-.64-1.24-1.01-1.84 0-.05-.05-.1-.05-.1-.36-.59-.68-1.19-1.05-1.79 0-.04-.05-.04-.05-.09a3.1 3.1 0 0 0-.32-.5c-.04-.23-.14-.46-.18-.7a73.34 73.34 0 0 0 4.04-4.73c1.42 1.98 2.66 4 3.71 6.07a10.15 10.15 0 0 1-4.82 4.23c-.09-.14-.18-.28-.22-.41Zm4.27-15.16-.36-.28-.37-.28a2.37 2.37 0 0 1-.37-.27l-.37-.28-.4-.27c-.15-.1-.28-.19-.38-.28-.13-.1-.27-.18-.4-.27l-.42-.28c-.14-.1-.28-.18-.46-.28-.14-.09-.28-.18-.41-.23l-.46-.27c-.14-.1-.28-.14-.42-.23-.13-.1-.32-.19-.45-.28-.14-.09-.28-.14-.42-.23a1.7 1.7 0 0 0-.5-.23c-.14-.09-.28-.13-.41-.23-.19-.09-.33-.18-.5-.23-.15-.09-.28-.13-.47-.23-.18-.09-.32-.13-.5-.23-.14-.04-.32-.13-.46-.18-.19-.1-.37-.14-.55-.23-.14-.05-.32-.14-.46-.18-.18-.1-.37-.14-.55-.23l-.46-.19c-.18-.09-.37-.14-.55-.23-.14-.04-.32-.14-.46-.18-.18-.05-.37-.14-.6-.19-.13-.04-.32-.09-.46-.18-.18-.05-.4-.14-.6-.18-.18-.05-.31-.1-.5-.14-.18-.05-.4-.14-.6-.18-.04 0-.08-.05-.13-.05 4.27-1.2 7.75-1.7 10.37-1.47a61.66 61.66 0 0 1 4.9 6.62 11.8 11.8 0 0 1-.82 2.07ZM75.1 22.33a67 67 0 0 0 4.04-7.77 62.11 62.11 0 0 1 6.24 6.3c-2.67-.19-6.1.32-10.28 1.47Zm-2.02-7.9c0-.05 0-.05-.05-.1-.04-.1-.04-.18-.09-.27-.04-.19-.14-.37-.18-.51-.05-.1-.05-.18-.1-.28-.04-.18-.13-.32-.18-.5a.65.65 0 0 1-.09-.28c-.05-.14-.14-.32-.18-.46a353.89 353.89 0 0 1-.5-.96c-.1-.14-.14-.32-.24-.46-.04-.1-.09-.14-.13-.23-.1-.14-.14-.28-.23-.42-.05-.09-.1-.13-.14-.23-.1-.13-.14-.27-.23-.41-.05-.1-.1-.14-.14-.23-.09-.14-.18-.28-.23-.41a.63.63 0 0 0-.14-.19c-.09-.13-.18-.27-.27-.36-.05-.05-.1-.14-.14-.19-.04-.04-.09-.1-.09-.14a63.1 63.1 0 0 1 6.29 4.28c-.92.6-1.93 1.42-2.94 2.34Zm-4.36-7.55c-.1-.04-.23-.13-.32-.18.1 0 .14.05.23.05 0 .04.04.09.09.13Zm.41.51.1.1c.04.08.13.13.18.22.09.1.14.23.23.32.04.1.14.19.18.23.1.1.14.23.23.32.05.1.14.19.18.28.1.1.14.23.23.32.05.1.1.19.19.28.04.14.13.23.18.37.05.09.1.18.18.27.05.14.14.23.19.37l.14.28c.04.13.13.23.18.36.05.1.1.19.14.32.04.14.13.28.18.37l.14.32c.04.14.09.28.18.42l.14.32.14.41.13.37.14.42c.05.13.1.22.14.36 0 .05.05.1.05.14-.74.64-1.47 1.38-2.2 2.07A45.93 45.93 0 0 0 59 6.38c2.52-.65 5.4-.65 8.53.04.5.37 1.05.65 1.6.97ZM52.8 3.89a.35.35 0 0 1-.18.1c-.14.04-.28.14-.42.23a.35.35 0 0 1-.18.09c-.14.1-.28.14-.41.23a.35.35 0 0 1-.19.1c-.13.08-.27.18-.41.22a.35.35 0 0 1-.18.1l-.42.27c-.04.05-.13.1-.18.14l-.41.27c-.05.05-.14.1-.19.14-.13.1-.27.18-.4.32l-.2.14c-.13.1-.27.23-.4.32-.05.05-.14.1-.19.14-.14.1-.27.23-.41.37-.05.04-.14.09-.19.14l-.4.36c-.05.05-.15.1-.2.14-.13.14-.27.23-.4.37-.05.05-.14.1-.19.18-.14.14-.27.28-.41.37l-.19.18-.4.42-.2.18c-.08.1-.18.19-.22.23a57.82 57.82 0 0 0-6.24-.46h-.1c-.27-.04-.5-.09-.77-.09-.1 0-.14 0-.23-.05-.28-.04-.55-.09-.83-.09h-.14c-.27-.04-.6-.04-.87-.09h-.09c-.32-.05-.6-.05-.92-.05H35c-.32 0-.65-.04-.97-.04-1.19-.05-2.34 0-3.48.04.78-1.1 1.7-2.06 2.7-2.98a19.5 19.5 0 0 1 7.48-3.96c1.56-.13 3.12-.13 4.73 0 2.57.23 5.14.88 7.66 1.8-.14.18-.23.23-.32.23ZM29.95 9.2c-.23.31-.46.64-.64 1-2.3.46-4.5 1.1-6.6 1.93a22.2 22.2 0 0 1 1.64-1.93c1.8-.5 3.67-.82 5.6-1Zm-.78 1.28c-2.39 4.14-3.26 9.33-2.52 15.17h-.14v.14c-.18.09-.37.13-.6.23a19.4 19.4 0 0 0-1.93.83c-.18.09-.36.18-.6.27-.45.23-.86.41-1.32.64-.14.05-.23.14-.37.19a28 28 0 0 0-6.65.92c1.47-6.2 3.9-11.82 7.39-16.37a36.9 36.9 0 0 1 6.74-2.02ZM9.35 69.07c.14.1.23.2.37.29l.36.27c.14.1.28.18.37.28l.37.27.41.28c.14.09.28.18.37.27l.41.28.41.28c.14.09.28.18.46.27.14.1.28.19.42.23.13.1.32.19.45.28.14.09.28.14.42.23l.5.27c.14.1.28.14.41.23l.5.28c.15.1.28.14.42.23l.5.23c.14.04.28.14.42.18.18.1.37.19.55.23.14.05.28.14.41.19.19.09.37.13.55.23.14.04.28.13.46.18.19.1.37.14.55.23.14.05.28.14.46.18.19.1.42.14.6.23.14.05.27.1.46.19.18.09.41.14.6.23l.45.13c.05 0 .1.05.1.05.09.05.18.05.27.1.1 0 .14.04.23.04.18.04.32.1.5.14h.1c.23.04.4.13.64.18h.04c-4.26 1.2-7.75 1.7-10.37 1.47a61.68 61.68 0 0 1-4.9-6.62c.09-.64.36-1.33.73-2.02 0-.05 0-.05 0 0Zm5.41 8.97a34 34 0 0 0 9.23-1.56 55.35 55.35 0 0 0-4 7.86A68.79 68.79 0 0 1 13.66 78c.37 0 .74.04 1.1.04Zm9.4-1.42c.06.23.06.5.1.73 0 .1.05.14.05.23l.13.74c0 .1.05.18.05.23l.14.69c0 .09.04.18.04.27l.14.65c0 .09.05.18.05.27l.14.65c0 .09.04.18.04.27l.14.6c.04.1.04.18.09.28l.14.55c.04.09.04.18.09.27.05.19.1.37.18.56.05.09.05.18.1.27 0 .05.04.1.04.14a32.86 32.86 0 0 1-3.12 2.48 65.48 65.48 0 0 1-2.57-2.11c.64-1.52 1.84-4 4.04-7.77Zm1.75 7.72c0 .05.05.1.05.18.04.1.04.19.09.28.05.18.14.37.18.5.05.1.1.19.1.28.04.19.13.32.18.5.05.1.1.2.1.28.04.19.13.33.17.5l.14.28c.05.14.14.33.23.46.05.1.1.19.14.23.1.14.14.33.23.46.04.1.09.14.14.23.09.14.13.28.23.42l.13.23c.1.14.14.27.23.41.05.1.1.14.14.23.1.14.14.28.23.41.05.1.1.14.14.23.09.14.18.23.23.37.04.1.09.14.13.19.05.04.05.09.1.13a59.2 59.2 0 0 1-6.34-4.32 40.4 40.4 0 0 0 3.03-2.48Zm4.36 7.59c.1.04.23.13.32.18-.09 0-.14-.05-.23-.05 0-.04-.04-.09-.09-.13Zm-.41-.51c0-.05-.05-.05-.05-.1-.04-.08-.13-.13-.18-.22-.1-.1-.14-.19-.23-.32a1 1 0 0 0-.18-.23c-.1-.1-.14-.23-.23-.33-.05-.09-.14-.18-.19-.27-.09-.1-.13-.23-.23-.32a.79.79 0 0 0-.18-.28c-.05-.14-.14-.23-.18-.37-.05-.09-.1-.18-.19-.27-.04-.14-.13-.23-.18-.37l-.14-.28c-.04-.13-.14-.23-.18-.36-.05-.1-.1-.19-.14-.33-.04-.13-.14-.27-.18-.36l-.14-.32c-.05-.14-.1-.28-.18-.42l-.14-.32-.14-.41c-.04-.14-.1-.23-.14-.37l-.13-.42-.14-.36-.1-.23c.74-.65 1.47-1.34 2.2-2.07a46.31 46.31 0 0 0 11.75 10.3c-2.52.64-5.41.64-8.53-.05-.55-.28-1.1-.6-1.65-.92Zm16.47 3.4c.18-.09.37-.18.6-.27.13-.1.27-.14.41-.23.18-.1.37-.23.6-.33l.36-.23c.19-.13.37-.23.6-.36l.41-.28c.19-.14.37-.27.6-.41.14-.1.27-.19.41-.32l.6-.46c.14-.1.27-.23.37-.33.18-.18.4-.32.6-.5.13-.1.27-.23.36-.32.18-.19.41-.37.6-.56.13-.13.27-.22.36-.36.19-.19.42-.37.6-.55.04-.05.14-.14.18-.23 2.11.27 4.18.4 6.2.46.09 0 .13 0 .23.04.13 0 .23.05.36.05l1.2.14h.09a113.5 113.5 0 0 0 1.65.18c.32 0 .64.05.96.05H65c.42 0 .83 0 1.2.04h1.56c.27 0 .55-.04.78-.04h.04c-.78 1.1-1.7 2.06-2.7 2.98a19.5 19.5 0 0 1-7.48 3.96c-1.52.13-3.12.13-4.73 0a30.4 30.4 0 0 1-7.66-1.8c.1-.18.18-.23.32-.32Zm23.5-6.43c2.38-4.14 3.25-9.34 2.51-15.17h.14v-.1c.28-.09.5-.23.78-.32.19-.09.37-.14.55-.23.46-.23.97-.41 1.43-.64.13-.05.27-.14.4-.18.56-.28 1.11-.51 1.61-.79 2.34-.04 4.55-.32 6.61-.92-1.33 6.21-3.76 11.82-7.25 16.37a48.2 48.2 0 0 1-6.79 1.98Zm24.3-53.88c-.08-.1-.13-.23-.22-.32-.1-.1-.18-.23-.28-.32-.09-.1-.18-.23-.27-.32-.1-.1-.18-.23-.28-.33-.09-.09-.18-.23-.27-.32-.1-.09-.19-.23-.28-.32-.09-.1-.18-.23-.27-.32l-.14-.14c-.1-.83-.28-1.6-.46-2.44a45.3 45.3 0 0 1 2.52 4.92c0-.04 0-.09-.04-.09Zm-2.29-2.71-.18-.18-.32-.33a2 2 0 0 0-.32-.27c-.1-.1-.23-.19-.32-.32l-.32-.28a2.3 2.3 0 0 1-.37-.32c-.05-.05-.1-.1-.14-.1.32-.73.6-1.37.78-1.97l.55.92c.28.92.5 1.88.64 2.85Zm-1.1-4.1c0-.04.05-.08.05-.18.05.19.14.37.18.56l-.23-.37Zm-5.09-6.8a66.75 66.75 0 0 0-6.47-6.52c.23-.65.41-1.2.55-1.7a37.82 37.82 0 0 1 7.9 8.6 8.37 8.37 0 0 0-1.98-.38Zm-9.45-9a61.3 61.3 0 0 0-6.84-4.6c-.09-.1-.14-.19-.23-.28 0-.04-.04-.04-.04-.09a30 30 0 0 1 8.44 4.14 9.5 9.5 0 0 0-1.33.82Zm-19-9.52c-.09 0-.13.05-.23.05a.82.82 0 0 0-.32.09c-.09 0-.18.04-.27.04-.1.05-.19.05-.28.1-.09.04-.18.04-.32.09-.09.04-.18.04-.27.09-.1.04-.23.04-.32.1-.1.04-.19.04-.28.08l-.32.14c-.1.05-.18.05-.23.1l-.37.13-.23.1c-.13.04-.23.08-.36.18-.05 0-.05.04-.1.04a28.92 28.92 0 0 0-7.93-1.88c-1.2-.1-2.34-.14-3.54-.1 4.6-1.05 9.82-.87 15.37.65ZM39.45 2.1a20.31 20.31 0 0 0-6.47 3.63 17.2 17.2 0 0 0-2.85 3.18 30.1 30.1 0 0 0-5.46.92c2.9-3 6.2-5.2 9.78-6.49.96-.32 1.92-.6 2.84-.82l2.16-.42ZM22.29 12.3a31.08 31.08 0 0 0-10.19 6.67c.14-.18.28-.36.42-.6.09-.13.18-.32.32-.45.18-.28.4-.5.6-.74.08-.14.22-.27.31-.41.23-.28.46-.5.74-.78.04-.05.14-.14.18-.23l.14-.14c.32-.32.69-.65 1-.97 2.3-2.02 5.06-3.5 8.18-4.41-.6.69-1.15 1.38-1.7 2.07Zm-10.7 7.04c-.04.1-.13.23-.18.32l-.04.05c-.14.14-.28.32-.41.5a5 5 0 0 1 .64-.87Zm-3.94 13.7c.1-.1.23-.18.37-.28v1.38c0 .28.04.55.04.83 0 .32.05.64.05.97.05.27.05.6.1.87.04.32.04.6.08.92-.09.1-.13.18-.23.23-.27.32-.55.6-.82.92v.04l-.05.05c-.32.37-.6.74-.87 1.1l-.04.05-.05.05a29.6 29.6 0 0 0-2.07 3.03c-.04-.37-.09-.74-.09-1.1a33.62 33.62 0 0 1-.04-4.7c.96-1.6 2.15-3.07 3.62-4.36Zm-3.85 9.1.14 1.43a21.06 21.06 0 0 0-2.67 8.04c-.09-1.1-.13-2.16-.13-3.22v-.23c.09-3.86.96-7.4 2.61-10.34-.04 1.43-.04 2.9.05 4.32Zm1.28 22.53c.1.09.14.18.23.27.1.14.19.28.32.37.1.1.14.18.23.28.1.13.23.27.32.36.1.1.19.19.23.28.1.14.23.23.32.37l.14.14c.1.82.28 1.6.46 2.43a45.3 45.3 0 0 1-2.52-4.92l.27.42Zm2.07 2.39.18.18.28.28c.13.09.23.23.36.32.1.09.23.18.32.27.14.1.23.23.37.33.1.09.23.18.32.27l.14.14c-.32.73-.6 1.38-.78 1.98-.18-.33-.37-.6-.55-.92a19.6 19.6 0 0 1-.64-2.85Zm1.1 4.09c0 .04-.05.09-.05.18-.04-.18-.14-.37-.18-.55.1.1.18.23.23.37Zm5.1 6.8a68.66 68.66 0 0 0 6.55 6.62c-.23.64-.41 1.24-.5 1.75a38.88 38.88 0 0 1-8.03-8.7c.6.15 1.24.29 1.97.33Zm9.35 8.97a62.8 62.8 0 0 0 6.88 4.64c.1.09.14.18.23.27 0 .05.05.05.05.1a30.45 30.45 0 0 1-8.58-4.23 8.9 8.9 0 0 0 1.42-.78Zm19.45 9.46c.14-.04.28-.04.37-.09l.55-.14.37-.13c.18-.05.37-.1.55-.19l.37-.13c.18-.1.36-.14.55-.23.14-.05.27-.14.36-.19l.28-.14a28.92 28.92 0 0 0 10.46 2.03c.32 0 .64 0 .96-.05-4.54 1.01-9.81.83-15.37-.69.28 0 .42-.05.55-.05Zm45.38-17.14c0-.05.05-.05.05-.1l.04-.04c.19-.18.32-.37.46-.5-.23.32-.5.64-.73.91.09-.04.14-.18.18-.27Zm3.81-13.47c-.1.1-.23.18-.37.28v-1.43c0-.28-.04-.55-.04-.83 0-.32-.05-.64-.05-.92-.04-.27-.04-.6-.1-.87-.04-.32-.04-.6-.08-.92.18-.23.36-.41.55-.64.18-.19.32-.37.5-.55.19-.23.37-.42.55-.65l.46-.6c.19-.23.32-.4.46-.64l.46-.6c.14-.23.28-.41.41-.64l.42-.64c.13-.19.23-.42.36-.6.05.37.1.73.1 1.1.13 1.61.13 3.17.04 4.7-1 1.74-2.2 3.2-3.67 4.45Zm3.85-9.1-.13-1.43c.04-.14.13-.23.18-.36.1-.19.18-.42.32-.6.1-.23.23-.46.32-.7.1-.18.19-.4.28-.59.09-.23.23-.46.27-.69.1-.18.14-.37.19-.6a12.66 12.66 0 0 0 .46-1.28c.09-.23.13-.51.18-.74l.14-.55.13-.74c.05-.18.05-.36.1-.55.04-.23.09-.46.09-.64.09 1.1.14 2.2.14 3.26v.19c-.1 3.86-.97 7.4-2.62 10.34.05-1.43.05-2.85-.05-4.32ZM79.36 10.93a1 1 0 0 1 .19.23c-.05-.05-.14-.1-.19-.14a.8.8 0 0 1-.22-.18c.04 0 .13.04.22.09Z"/>
    </symbol>
    <symbol id="arrow-d" viewBox="0 0 20 40">
        <path fill="none" stroke="currentColor" stroke-width="2" d="M10 0v40m10-12c-6 0-10 5-10 12M0 28c6 0 10 5 10 12"/>
    </symbol>
    <symbol id="arrow-r" viewBox="0 0 28 20">
        <path fill="none" stroke="currentColor" stroke-width="3" d="M0 10h28M16 0c0 6 5 10 12 10M16 20c0-6 5-10 12-10"/>
    </symbol>
    <symbol id="close" fill="currentColor" viewBox="0 0 21 21">
        <path d="m13 11 8 8-2 2-2-2-6-6-9 8-2-2 8-8-8-9 2-2 9 8 8-8 2 2-2 2-6 7Z"/>
    </symbol>
</svg>
